<svg width="24" height="24" viewBox="0 0 24 24" fill="none" xmlns="http://www.w3.org/2000/svg">
<path d="M11.5279 12.5825C11.8499 12.8431 12.3221 12.7934 12.5827 12.4714C12.8433 12.1494 12.7936 11.6772 12.4716 11.4166L11.5279 12.5825ZM6.71807 2.63655C6.35731 2.84008 6.22985 3.29753 6.43338 3.65829C6.63692 4.01905 7.09437 4.14651 7.45513 3.94298L6.71807 2.63655ZM9.86557 5.59414C9.47258 5.72502 9.2601 6.14971 9.39098 6.5427C9.52186 6.93569 9.94654 7.14817 10.3395 7.01729L9.86557 5.59414ZM20.9346 14.3936C19.6123 19.3282 14.5402 22.2566 9.60566 20.9344L9.21744 22.3833C14.9522 23.9199 20.8468 20.5166 22.3834 14.7819L20.9346 14.3936ZM9.60566 20.9344C4.6711 19.6122 1.74271 14.54 3.06493 9.60552L1.61604 9.21729C0.0794096 14.952 3.48268 20.8466 9.21744 22.3833L9.60566 20.9344ZM14.3938 3.06478C19.3284 4.38699 22.2568 9.45911 20.9346 14.3936L22.3834 14.7819C23.9201 9.04714 20.5168 3.15251 14.782 1.61589L14.3938 3.06478ZM12.4716 11.4166L5.47352 5.75252L4.52982 6.91847L11.5279 12.5825L12.4716 11.4166ZM3.06493 9.60552C3.32736 8.62609 3.73689 7.72699 4.26289 6.92478L3.00848 6.1023C2.39606 7.03634 1.9203 8.08177 1.61604 9.21729L3.06493 9.60552ZM7.45513 3.94298C9.49101 2.79438 11.9584 2.41222 14.3938 3.06478L14.782 1.61589C11.9523 0.857647 9.08208 1.30284 6.71807 2.63655L7.45513 3.94298ZM5.47352 5.75252C4.74027 5.15904 3.58249 5.22685 3.00848 6.1023L4.26289 6.92478C4.28507 6.89093 4.31584 6.87122 4.36126 6.86573C4.41114 6.8597 4.47398 6.87327 4.52982 6.91847L5.47352 5.75252ZM17.2497 11.9996C17.2497 14.899 14.8992 17.2496 11.9997 17.2496V18.7496C15.7277 18.7496 18.7497 15.7275 18.7497 11.9996H17.2497ZM11.9997 17.2496C9.10024 17.2496 6.74974 14.899 6.74974 11.9996H5.24974C5.24974 15.7275 8.27182 18.7496 11.9997 18.7496V17.2496ZM11.9997 6.74959C14.8992 6.74959 17.2497 9.1001 17.2497 11.9996H18.7497C18.7497 8.27167 15.7277 5.24959 11.9997 5.24959V6.74959ZM6.74974 11.9996C6.74974 10.7308 7.19883 9.56904 7.94746 8.66144L6.79031 7.70697C5.82823 8.87334 5.24974 10.3699 5.24974 11.9996H6.74974ZM10.3395 7.01729C10.8604 6.84383 11.4183 6.74959 11.9997 6.74959V5.24959C11.2552 5.24959 10.5373 5.37043 9.86557 5.59414L10.3395 7.01729Z" fill="#35356A"/>
</svg>
