<svg width="24" height="25" viewBox="0 0 24 25" fill="none" xmlns="http://www.w3.org/2000/svg">
<g id="Icon">
<path id="Vector 431 (Stroke)" fill-rule="evenodd" clip-rule="evenodd" d="M3.75 16.25L3.75 5C3.75 4.80109 3.82902 4.61032 3.96967 4.46967C4.11032 4.32902 4.30109 4.25 4.5 4.25L15.75 4.25C16.1642 4.25 16.5 4.58579 16.5 5C16.5 5.41421 16.1642 5.75 15.75 5.75L6.31066 5.75L20.0303 19.4697C20.3232 19.7626 20.3232 20.2374 20.0303 20.5303C19.7374 20.8232 19.2626 20.8232 18.9697 20.5303L5.25 6.81066L5.25 16.25C5.25 16.6642 4.91421 17 4.5 17C4.08579 17 3.75 16.6642 3.75 16.25Z" fill="white"/>
</g>
</svg>
