<svg width="27" height="26" viewBox="0 0 27 26" fill="none" xmlns="http://www.w3.org/2000/svg">
<g id="Frame" clip-path="url(#clip0_16_9616)">
<g id="Group">
<path id="Vector" d="M22.8827 20.9911C12.358 26 5.82618 21.8092 1.64498 19.2638C1.38625 19.1034 0.946497 19.3013 1.32804 19.7395C2.72101 21.4285 7.28605 25.4995 13.2448 25.4995C19.2076 25.4995 22.7549 22.2459 23.1986 21.6784C23.6394 21.1156 23.3281 20.8052 22.8826 20.9911H22.8827ZM25.8386 19.3587C25.5559 18.9907 24.12 18.922 23.2162 19.0331C22.3111 19.1409 20.9526 19.694 21.0707 20.0262C21.1313 20.1506 21.255 20.0948 21.8768 20.0389C22.5003 19.9767 24.2469 19.7562 24.6108 20.232C24.9765 20.7111 24.0537 22.9931 23.8852 23.3612C23.7224 23.7292 23.9474 23.8241 24.2533 23.579C24.5549 23.334 25.101 22.6994 25.4674 21.8014C25.8314 20.8985 26.0534 19.6389 25.8386 19.3587Z" fill="white"/>
<path id="Vector_2" fill-rule="evenodd" clip-rule="evenodd" d="M15.8059 10.7705C15.8059 12.0847 15.8391 13.1808 15.1748 14.3479C14.6387 15.2969 13.7894 15.8805 12.8405 15.8805C11.5451 15.8805 10.7907 14.8936 10.7907 13.437C10.7907 10.5617 13.367 10.0398 15.8059 10.0398V10.7705ZM19.2078 18.9931C18.9848 19.1923 18.6621 19.2066 18.4107 19.0737C17.291 18.1438 17.0917 17.712 16.4749 16.8247C14.6245 18.7131 13.3149 19.2777 10.9141 19.2777C8.07679 19.2777 5.86572 17.5269 5.86572 14.0206C5.86572 11.2829 7.3509 9.41822 9.46215 8.50731C11.2937 7.70062 13.8511 7.5583 15.8059 7.33537V6.89882C15.8059 6.09693 15.8675 5.14801 15.3979 4.45533C14.985 3.83376 14.1974 3.57753 13.5046 3.57753C12.2189 3.57753 11.0706 4.23701 10.7907 5.60347C10.7337 5.9072 10.5108 6.20614 10.2071 6.22034L6.93325 5.8693C6.65812 5.80749 6.35448 5.58457 6.43039 5.16222C7.18478 1.19574 10.7669 0 13.9743 0C15.616 0 17.7605 0.436552 19.0559 1.6797C20.6976 3.21218 20.541 5.25713 20.541 7.48239V12.7395C20.541 14.3195 21.1957 15.0122 21.8125 15.8663C22.0307 16.1699 22.0783 16.5354 21.803 16.763C21.115 17.3371 19.8909 18.4047 19.2172 19.0026L19.2077 18.9931" fill="white"/>
<path id="Vector_3" d="M22.8827 20.9911C12.358 26 5.82618 21.8092 1.64498 19.2638C1.38625 19.1034 0.946497 19.3013 1.32804 19.7395C2.72101 21.4285 7.28605 25.4995 13.2448 25.4995C19.2076 25.4995 22.7549 22.2459 23.1986 21.6784C23.6394 21.1156 23.3281 20.8052 22.8826 20.9911H22.8827ZM25.8386 19.3587C25.5559 18.9907 24.12 18.922 23.2162 19.0331C22.3111 19.1409 20.9526 19.694 21.0707 20.0262C21.1313 20.1506 21.255 20.0948 21.8768 20.0389C22.5003 19.9767 24.2469 19.7562 24.6108 20.232C24.9765 20.7111 24.0537 22.9931 23.8852 23.3612C23.7224 23.7292 23.9474 23.8241 24.2533 23.579C24.5549 23.334 25.101 22.6994 25.4674 21.8014C25.8314 20.8985 26.0534 19.6389 25.8386 19.3587Z" fill="white"/>
<path id="Vector_4" fill-rule="evenodd" clip-rule="evenodd" d="M15.8059 10.7705C15.8059 12.0847 15.8391 13.1808 15.1748 14.3479C14.6387 15.2969 13.7894 15.8805 12.8405 15.8805C11.5451 15.8805 10.7907 14.8936 10.7907 13.437C10.7907 10.5617 13.367 10.0398 15.8059 10.0398V10.7705ZM19.2078 18.9931C18.9848 19.1923 18.6621 19.2066 18.4107 19.0737C17.291 18.1438 17.0917 17.712 16.4749 16.8247C14.6245 18.7131 13.3149 19.2777 10.9141 19.2777C8.07679 19.2777 5.86572 17.5269 5.86572 14.0206C5.86572 11.2829 7.3509 9.41822 9.46215 8.50731C11.2937 7.70062 13.8511 7.5583 15.8059 7.33537V6.89882C15.8059 6.09693 15.8675 5.14801 15.3979 4.45533C14.985 3.83376 14.1974 3.57753 13.5046 3.57753C12.2189 3.57753 11.0706 4.23701 10.7907 5.60347C10.7337 5.9072 10.5108 6.20614 10.2071 6.22034L6.93325 5.8693C6.65812 5.80749 6.35448 5.58457 6.43039 5.16222C7.18478 1.19574 10.7669 0 13.9743 0C15.616 0 17.7605 0.436552 19.0559 1.6797C20.6976 3.21218 20.541 5.25713 20.541 7.48239V12.7395C20.541 14.3195 21.1957 15.0122 21.8125 15.8663C22.0307 16.1699 22.0783 16.5354 21.803 16.763C21.115 17.3371 19.8909 18.4047 19.2172 19.0026L19.2077 18.9931" fill="white"/>
</g>
</g>
<defs>
<clipPath id="clip0_16_9616">
<rect width="26" height="26" fill="white" transform="translate(0.5)"/>
</clipPath>
</defs>
</svg>
