<svg width="34" height="34" viewBox="0 0 34 34" fill="none" xmlns="http://www.w3.org/2000/svg">
<path fill-rule="evenodd" clip-rule="evenodd" d="M17 3.25C9.40608 3.25 3.25 9.40608 3.25 17C3.25 24.5938 9.40608 30.75 17 30.75C24.5938 30.75 30.75 24.5938 30.75 17C30.75 9.40608 24.5938 3.25 17 3.25ZM15.9377 12.2824L13.167 14.4888C12.0046 15.4145 11.4233 15.8774 11.5368 16.3942L11.5428 16.4198C11.6721 16.9333 12.4088 17.1308 13.8823 17.5257C14.7011 17.745 15.1106 17.8547 15.3027 18.165L15.3125 18.1814C15.4978 18.4954 15.3923 18.8888 15.1816 19.6756L15.1264 19.8812C14.5419 22.0625 14.2497 23.153 14.8125 23.5053C15.3753 23.8574 16.2708 23.1443 18.0619 21.7182L20.8325 19.5117C21.995 18.5861 22.5762 18.1232 22.4627 17.6064L22.4568 17.5808C22.3274 17.0672 21.5907 16.8698 20.1173 16.475C19.2985 16.2556 18.889 16.1459 18.6969 15.8355L18.6871 15.8191C18.5018 15.5051 18.6072 15.1117 18.818 14.3251L18.8732 14.1194C19.4575 11.9381 19.7499 10.8475 19.1869 10.4953C18.6242 10.1431 17.7286 10.8562 15.9377 12.2824Z" fill="#35356A"/>
</svg>
