<svg width="25" height="25" viewBox="0 0 25 25" fill="none" xmlns="http://www.w3.org/2000/svg">
<path d="M16.2457 4.24208L18.2457 5.29163C20.3974 6.42077 21.4732 6.98534 22.0706 7.99985C22.668 9.01436 22.668 10.2768 22.668 12.8016V12.9186C22.668 15.4434 22.668 16.7059 22.0706 17.7204C21.4732 18.7349 20.3974 19.2994 18.2457 20.4286L16.2457 21.4781C14.4901 22.3994 13.6123 22.8601 12.668 22.8601C11.7237 22.8601 10.8459 22.3994 9.09026 21.4781L7.09026 20.4286C4.9386 19.2994 3.86276 18.7349 3.26537 17.7204C2.66797 16.7059 2.66797 15.4434 2.66797 12.9186V12.8016C2.66797 10.2768 2.66797 9.01436 3.26537 7.99985C3.86276 6.98534 4.9386 6.42077 7.09026 5.29163L9.09026 4.24208C10.8459 3.32077 11.7237 2.86011 12.668 2.86011C13.6123 2.86011 14.4901 3.32077 16.2457 4.24208Z" stroke="#283A90" stroke-width="1.5" stroke-linecap="round"/>
<path d="M21.668 8.36011L12.668 12.8601M12.668 12.8601L3.66797 8.36011M12.668 12.8601V22.3601" stroke="#283A90" stroke-width="1.5" stroke-linecap="round"/>
</svg>
