<svg width="35" height="36" viewBox="0 0 35 36" fill="none" xmlns="http://www.w3.org/2000/svg">
<path fill-rule="evenodd" clip-rule="evenodd" d="M19.8746 30.0465L19.0841 31.3821C18.3794 32.5726 16.6192 32.5726 15.9146 31.3821L15.124 30.0465C14.5108 29.0105 14.2042 28.4925 13.7118 28.2061C13.2193 27.9197 12.5992 27.909 11.3591 27.8876C9.52842 27.8561 8.38023 27.7439 7.41728 27.345C5.63062 26.605 4.21112 25.1855 3.47106 23.3988C2.91602 22.0588 2.91602 20.3601 2.91602 16.9626V15.5042C2.91602 10.7305 2.91602 8.3436 3.99051 6.59018C4.59175 5.60905 5.41666 4.78414 6.3978 4.1829C8.15122 3.1084 10.5381 3.1084 15.3118 3.1084H19.6868C24.4606 3.1084 26.8475 3.1084 28.6009 4.1829C29.582 4.78414 30.4069 5.60905 31.0082 6.59018C32.0827 8.3436 32.0827 10.7305 32.0827 15.5042V16.9626C32.0827 20.3601 32.0827 22.0588 31.5276 23.3988C30.7876 25.1855 29.3681 26.605 27.5814 27.345C26.6185 27.7439 25.4702 27.8561 23.6395 27.8876C22.3994 27.909 21.7794 27.9197 21.2869 28.2061C20.7944 28.4925 20.4878 29.0105 19.8746 30.0465ZM11.666 17.3271C11.062 17.3271 10.5723 17.8168 10.5723 18.4209C10.5723 19.025 11.062 19.5146 11.666 19.5146H19.6868C20.2909 19.5146 20.7806 19.025 20.7806 18.4209C20.7806 17.8168 20.2909 17.3271 19.6868 17.3271H11.666ZM10.5723 13.3167C10.5723 12.7127 11.062 12.223 11.666 12.223H23.3327C23.9367 12.223 24.4264 12.7127 24.4264 13.3167C24.4264 13.9208 23.9367 14.4105 23.3327 14.4105H11.666C11.062 14.4105 10.5723 13.9208 10.5723 13.3167Z" fill="#283A90"/>
</svg>
