<svg width="51" height="48" viewBox="0 0 51 48" fill="none" xmlns="http://www.w3.org/2000/svg">
<path id="Vector" d="M18.3447 8.25563C21.5508 2.97514 23.1538 0.334894 25.5388 0.388949C27.9238 0.443004 29.5112 3.15556 32.6861 8.58067L33.5075 9.98421C34.4097 11.5259 34.8608 12.2967 35.5661 12.8145C36.2715 13.3324 37.1512 13.5386 38.9107 13.951L40.5126 14.3265C46.7043 15.778 49.8001 16.5037 50.5307 18.7369C51.2612 20.9702 49.1427 23.2319 44.9055 27.7554L43.8093 28.9257C42.6053 30.2112 42.0032 30.8539 41.7309 31.6597C41.4586 32.4656 41.5467 33.3433 41.7231 35.0988L41.8837 36.6969C42.5043 42.8745 42.8146 45.9633 40.8811 47.2894C38.9477 48.6156 36.0509 47.3009 30.2573 44.6714L28.7584 43.9912C27.1121 43.244 26.2889 42.8704 25.4152 42.8506C24.5415 42.8308 23.7163 43.167 22.0658 43.8395L20.5632 44.4517C14.7551 46.8182 11.851 48.0014 9.92549 46.5878C7.99998 45.1742 8.32824 42.0999 8.98473 35.9513L9.15457 34.3606C9.34113 32.6134 9.43441 31.7397 9.16679 30.9217C8.89918 30.1036 8.30097 29.4337 7.10455 28.0938L6.01531 26.874C1.80506 22.159 -0.30007 19.8016 0.44338 17.6017C1.18683 15.4019 4.28649 14.8166 10.4858 13.646L12.0897 13.3431C13.8513 13.0105 14.7321 12.8442 15.4404 12.3584C16.1487 11.8726 16.6042 11.1223 17.5153 9.62175L18.3447 8.25563Z" fill="#FE547C"/>
</svg>
