<svg width="25" height="24" viewBox="0 0 25 24" fill="none" xmlns="http://www.w3.org/2000/svg">
<path d="M12.5007 16C6.7407 16 5.72032 10.2595 5.53956 5.70647C5.48928 4.43998 5.46414 3.80673 5.93986 3.22083C6.41557 2.63494 6.98494 2.53887 8.12367 2.34674C9.24773 2.15709 10.7171 2 12.5007 2C14.2842 2 15.7536 2.15709 16.8776 2.34674C18.0164 2.53887 18.5857 2.63494 19.0614 3.22083C19.5372 3.80673 19.512 4.43998 19.4617 5.70647C19.281 10.2595 18.2606 16 12.5007 16Z" stroke="#35356A" stroke-width="1.5"/>
<path d="M11.5 8L13 6.5V10.5" stroke="#35356A" stroke-width="1.5" stroke-linecap="round" stroke-linejoin="round"/>
<path d="M19.5 5L20.4486 5.31621C21.4387 5.64623 21.9337 5.81124 22.2168 6.20408C22.5 6.59692 22.5 7.11873 22.4999 8.16234V8.23487C22.4999 9.09561 22.4999 9.52598 22.2927 9.87809C22.0855 10.2302 21.7093 10.4392 20.9569 10.8572L18 12.5" stroke="#35356A" stroke-width="1.5"/>
<path d="M5.49994 5L4.55132 5.31621C3.56126 5.64623 3.06623 5.81124 2.7831 6.20408C2.49996 6.59692 2.49997 7.11873 2.5 8.16234V8.23487C2.50003 9.09561 2.50004 9.52598 2.70723 9.87809C2.91441 10.2302 3.29063 10.4392 4.04305 10.8572L6.99994 12.5" stroke="#35356A" stroke-width="1.5"/>
<path d="M12.5 16V19" stroke="#35356A" stroke-width="1.5" stroke-linecap="round"/>
<path d="M16 22H9L9.33922 20.3039C9.43271 19.8365 9.84312 19.5 10.3198 19.5H14.6802C15.1569 19.5 15.5673 19.8365 15.6608 20.3039L16 22Z" stroke="#35356A" stroke-width="1.5" stroke-linecap="round" stroke-linejoin="round"/>
<path d="M18.5 22H6.5" stroke="#35356A" stroke-width="1.5" stroke-linecap="round"/>
</svg>
