<svg width="34" height="34" viewBox="0 0 34 34" fill="none" xmlns="http://www.w3.org/2000/svg">
<path fill-rule="evenodd" clip-rule="evenodd" d="M6.23591 4.86091C4.625 6.47183 4.625 9.06455 4.625 14.25V19.75C4.625 24.9354 4.625 27.5282 6.23591 29.139C7.84683 30.75 10.4395 30.75 15.625 30.75H18.375C23.5604 30.75 26.1532 30.75 27.764 29.139C29.375 27.5282 29.375 24.9354 29.375 19.75V14.25C29.375 9.06455 29.375 6.47183 27.764 4.86091C26.1532 3.25 23.5604 3.25 18.375 3.25H15.625C10.4395 3.25 7.84683 3.25 6.23591 4.86091ZM10.4688 11.5C10.4688 10.9305 10.9305 10.4688 11.5 10.4688H22.5C23.0695 10.4688 23.5312 10.9305 23.5312 11.5C23.5312 12.0695 23.0695 12.5312 22.5 12.5312H11.5C10.9305 12.5312 10.4688 12.0695 10.4688 11.5ZM10.4688 17C10.4688 16.4305 10.9305 15.9688 11.5 15.9688H22.5C23.0695 15.9688 23.5312 16.4305 23.5312 17C23.5312 17.5695 23.0695 18.0312 22.5 18.0312H11.5C10.9305 18.0312 10.4688 17.5695 10.4688 17ZM11.5 21.4688C10.9305 21.4688 10.4688 21.9305 10.4688 22.5C10.4688 23.0695 10.9305 23.5312 11.5 23.5312H18.375C18.9445 23.5312 19.4062 23.0695 19.4062 22.5C19.4062 21.9305 18.9445 21.4688 18.375 21.4688H11.5Z" fill="#35356A"/>
</svg>
