<svg  viewBox="0 0 29 22" fill="none" xmlns="http://www.w3.org/2000/svg">
<path d="M25.5902 0.250977C27.0032 0.250977 28.1496 1.42621 28.1496 2.87598C28.1496 3.70176 27.7711 4.47832 27.1259 4.97598L15.5234 13.901C14.9155 14.3658 14.0837 14.3658 13.4759 13.901L1.87336 4.97598C1.22888 4.47832 0.849609 3.70176 0.849609 2.87598C0.849609 1.42621 1.99546 0.250977 3.40898 0.250977H25.5902ZM12.4521 15.3009C13.6678 16.2362 15.3314 16.2362 16.5471 15.3009L28.1496 6.37597V17.751C28.1496 19.6814 26.6193 21.251 24.7371 21.251H4.26211C2.37723 21.251 0.849609 19.6814 0.849609 17.751V6.37597L12.4521 15.3009Z" fill="#283A90"/>
</svg>
