<svg width="25" height="24" viewBox="0 0 25 24" fill="none" xmlns="http://www.w3.org/2000/svg">
<path d="M14.5 21.2501H10.5V22.7501H14.5V21.2501ZM3.25 14.0001V10.0001H1.75V14.0001H3.25ZM21.75 13.563V14.0001H23.25V13.563H21.75ZM15.3912 4.61117L19.35 8.17407L20.3534 7.05912L16.3947 3.49623L15.3912 4.61117ZM23.25 13.563C23.25 11.8745 23.2651 10.8056 22.8391 9.84902L21.4689 10.4593C21.7349 11.0566 21.75 11.7421 21.75 13.563H23.25ZM19.35 8.17407C20.7034 9.39215 21.2029 9.86204 21.4689 10.4593L22.8391 9.84902C22.4131 8.89246 21.6084 8.18858 20.3534 7.05912L19.35 8.17407ZM10.5298 2.75005C12.1116 2.75005 12.7085 2.76163 13.2405 2.96578L13.7779 1.56535C12.9261 1.23847 11.998 1.25005 10.5298 1.25005V2.75005ZM16.3947 3.49623C15.3087 2.51883 14.6297 1.89219 13.7779 1.56535L13.2405 2.96578C13.7727 3.16998 14.2215 3.55841 15.3912 4.61117L16.3947 3.49623ZM10.5 21.2501C8.59318 21.2501 7.23851 21.2485 6.21085 21.1103C5.20476 20.9751 4.62511 20.7214 4.2019 20.2982L3.14124 21.3589C3.88961 22.1072 4.83855 22.4393 6.01098 22.597C7.16182 22.7517 8.63558 22.7501 10.5 22.7501V21.2501ZM1.75 14.0001C1.75 15.8645 1.74841 17.3383 1.90313 18.4891C2.06076 19.6615 2.39288 20.6105 3.14124 21.3589L4.2019 20.2982C3.77869 19.875 3.52502 19.2953 3.38976 18.2893C3.25159 17.2616 3.25 15.9069 3.25 14.0001H1.75ZM14.5 22.7501C16.3644 22.7501 17.8382 22.7517 18.989 22.597C20.1614 22.4393 21.1104 22.1072 21.8588 21.3589L20.7981 20.2982C20.3749 20.7214 19.7952 20.9751 18.7892 21.1103C17.7615 21.2485 16.4068 21.2501 14.5 21.2501V22.7501ZM21.75 14.0001C21.75 15.9069 21.7484 17.2616 21.6102 18.2893C21.475 19.2953 21.2213 19.875 20.7981 20.2982L21.8588 21.3589C22.6071 20.6105 22.9392 19.6615 23.0969 18.4891C23.2516 17.3383 23.25 15.8645 23.25 14.0001H21.75ZM3.25 10.0001C3.25 8.09323 3.25159 6.73856 3.38976 5.7109C3.52502 4.70481 3.77869 4.12516 4.2019 3.70195L3.14124 2.64129C2.39288 3.38966 2.06076 4.3386 1.90313 5.51103C1.74841 6.66187 1.75 8.13563 1.75 10.0001H3.25ZM10.5298 1.25005C8.65538 1.25005 7.17442 1.24847 6.01887 1.40312C4.84232 1.56059 3.89019 1.89235 3.14124 2.64129L4.2019 3.70195C4.62453 3.27933 5.20596 3.0253 6.21785 2.88987C7.25075 2.75163 8.61311 2.75005 10.5298 2.75005V1.25005Z" fill="#FE547C"/>
<path d="M6.5 14.5H14.5" stroke="#FE547C" stroke-width="1.5" stroke-linecap="round"/>
<path d="M6.5 18H12" stroke="#FE547C" stroke-width="1.5" stroke-linecap="round"/>
<path d="M13.5 2.5V5C13.5 7.35702 13.5 8.53553 14.2322 9.26777C14.9645 10 16.143 10 18.5 10H22.5" stroke="#FE547C" stroke-width="1.5"/>
</svg>
