<svg width="126" height="25" viewBox="0 0 126 25" fill="none" xmlns="http://www.w3.org/2000/svg">
<g clip-path="url(#clip0_166_727)">
<path d="M24.8494 15.3838H15.625V24.2777H21.4343C21.8828 24.2777 22.3269 24.1894 22.7413 24.0177C23.1556 23.8461 23.5322 23.5945 23.8493 23.2773C24.1664 22.9601 24.418 22.5836 24.5896 22.1692C24.7612 21.7548 24.8495 21.3107 24.8494 20.8622V15.3838Z" fill="#999EB2"/>
<path d="M7.75344 0H24.8489L24.8187 8.53172C24.815 9.72023 24.3445 10.8597 23.5087 11.7047L11.6736 23.6516C11.477 23.85 11.2429 24.0075 10.985 24.1149C10.7271 24.2223 10.4504 24.2776 10.171 24.2774L4.53878 24.2724C3.4865 24.2715 2.47761 23.8529 1.73383 23.1086C0.990062 22.3642 0.572265 21.355 0.572266 20.3027L0.572266 17.2237L6.87623 17.2401C7.31104 17.2412 7.72861 17.0701 8.03765 16.7643L16.5562 8.32693C16.9654 7.92162 16.6794 7.22284 16.1035 7.22284L0.572266 7.18117C0.572266 3.21502 3.78729 0 7.75344 0Z" fill="#999EB2"/>
</g>
<path d="M122.906 21.4036L122.906 21.4036L122.912 21.4094C123.228 21.726 123.614 21.8895 124.055 21.8895C124.496 21.8895 124.882 21.726 125.198 21.4094C125.517 21.0903 125.678 20.6957 125.678 20.2406C125.678 19.7867 125.518 19.3983 125.195 19.0945C124.879 18.7797 124.495 18.6172 124.055 18.6172C123.614 18.6172 123.228 18.7807 122.912 19.0974C122.606 19.4028 122.457 19.7905 122.457 20.2406C122.457 20.6907 122.606 21.0835 122.906 21.4036Z" fill="#999EB2" stroke="#999EB2" stroke-width="0.5"/>
<path d="M119.097 8.13396V7.88396H118.847H117.042H116.792V8.13396V9.9178C116.289 9.31949 115.69 8.84496 114.994 8.49665C114.09 8.01865 113.075 7.78223 111.955 7.78223C110.661 7.78223 109.482 8.07987 108.425 8.67871C107.366 9.26131 106.536 10.0921 105.937 11.1661C105.338 12.2418 105.041 13.4631 105.041 14.8232C105.041 16.1833 105.338 17.4045 105.937 18.4803C106.536 19.5541 107.366 20.3929 108.423 20.9923C109.481 21.5917 110.66 21.8896 111.955 21.8896C113.11 21.8896 114.152 21.6443 115.074 21.148C115.776 20.7767 116.375 20.2813 116.868 19.6638V21.5124V21.7624H117.118H118.847H119.097V21.5124V8.13396ZM116.187 17.4236L116.187 17.4236L116.185 17.4272C115.783 18.1836 115.222 18.7676 114.501 19.1844C113.796 19.5848 113 19.7872 112.107 19.7872C111.198 19.7872 110.385 19.5848 109.663 19.1844C108.959 18.7679 108.398 18.1835 107.978 17.4254C107.576 16.6694 107.372 15.8041 107.372 14.8232C107.372 13.8423 107.576 12.9769 107.978 12.2209C108.398 11.4626 108.959 10.8872 109.662 10.4878L109.662 10.4878L109.664 10.4869C110.386 10.0697 111.198 9.85915 112.107 9.85915C112.999 9.85915 113.794 10.0693 114.498 10.4857L114.498 10.4858L114.504 10.489C115.223 10.8886 115.783 11.4632 116.185 12.2191L116.185 12.2191L116.187 12.2227C116.605 12.9784 116.817 13.8431 116.817 14.8232C116.817 15.8033 116.605 16.6679 116.187 17.4236Z" fill="#999EB2" stroke="#999EB2" stroke-width="0.5"/>
<path d="M97.8373 21.1475C98.5399 20.7762 99.1382 20.2807 99.6316 19.6633V21.5119V21.7619H99.8816H101.611H101.861V21.5119V2.63965V2.38965L97.7197 20.9269M97.8373 21.1475C97.8371 21.1476 97.8368 21.1478 97.8365 21.1479L97.7197 20.9269M97.8373 21.1475C97.8376 21.1473 97.8379 21.1472 97.8382 21.147L97.7197 20.9269M97.8373 21.1475C96.9153 21.6438 95.8736 21.8891 94.7185 21.8891C93.4238 21.8891 92.2447 21.5912 91.187 20.9918C90.1292 20.3924 89.2996 19.5536 88.7011 18.4797C88.1015 17.404 87.8047 16.1828 87.8047 14.8227C87.8047 13.4626 88.1015 12.2413 88.7011 11.1656C89.2997 10.0916 90.1297 9.26079 91.1884 8.67818M97.7197 20.9269C96.838 21.4017 95.8376 21.6391 94.7185 21.6391C93.4637 21.6391 92.3276 21.3508 91.3103 20.7743C90.2929 20.1978 89.496 19.3924 88.9195 18.358C88.3429 17.3237 88.0547 16.1453 88.0547 14.8227C88.0547 13.5001 88.3429 12.3216 88.9195 11.2873C89.496 10.253 90.2929 9.45604 91.3103 8.89648M91.1884 8.67818C91.188 8.67845 91.1875 8.67871 91.187 8.67898L91.3103 8.89648M91.1884 8.67818C92.2458 8.07935 93.4243 7.78172 94.7185 7.78172C95.8389 7.78172 96.8539 8.01814 97.7578 8.49613M91.1884 8.67818C91.1889 8.67793 91.1893 8.67768 91.1898 8.67743L91.3103 8.89648M91.3103 8.89648L97.7578 8.49613M97.7578 8.49613C97.7587 8.49659 97.7595 8.49704 97.7604 8.4975L97.6434 8.71844L97.7552 8.49484C97.7561 8.49527 97.7569 8.4957 97.7578 8.49613ZM99.5553 10.3188C99.642 10.4338 99.7253 10.5532 99.8053 10.6769V10.2362C99.7248 10.1262 99.6415 10.0199 99.5553 9.91729V10.3188ZM99.8816 18.8667C99.8021 18.9984 99.7188 19.1255 99.6316 19.2481L99.8816 18.8667ZM98.9507 17.4231L98.9507 17.4231L98.9487 17.4267C98.5464 18.1832 97.9858 18.7672 97.2646 19.184C96.5597 19.5843 95.7638 19.7867 94.8711 19.7867C93.9614 19.7867 93.1485 19.5843 92.4265 19.1839C91.7227 18.7673 91.1613 18.183 90.7416 17.4249C90.3399 16.6689 90.136 15.8036 90.136 14.8227C90.136 13.8418 90.3399 12.9764 90.7416 12.2204C91.1615 11.4621 91.7227 10.8867 92.4257 10.4873L92.4257 10.4873L92.4273 10.4864C93.1494 10.0692 93.9619 9.85864 94.8711 9.85864C95.7625 9.85864 96.5573 10.0688 97.2619 10.4852L97.2618 10.4852L97.2677 10.4885C97.987 10.8881 98.5467 11.4627 98.9487 12.2186L98.9487 12.2186L98.9507 12.2222C99.3688 12.9779 99.5808 13.8426 99.5808 14.8227C99.5808 15.8028 99.3688 16.6674 98.9507 17.4231Z" fill="#999EB2" stroke="#999EB2" stroke-width="0.5"/>
<path d="M75.3149 20.9916L75.3149 20.9917L75.3176 20.9932C76.3924 21.5922 77.5964 21.8896 78.9238 21.8896C80.2512 21.8896 81.4552 21.5922 82.53 20.9932L82.53 20.9932L82.5327 20.9916C83.6057 20.376 84.4435 19.5298 85.0422 18.4562C85.6589 17.3808 85.9648 16.1676 85.9648 14.8232C85.9648 13.4787 85.6589 12.2656 85.0422 11.1902C84.4431 10.1159 83.6045 9.2775 82.53 8.67862C81.4552 8.07957 80.2512 7.78223 78.9238 7.78223C77.5964 7.78223 76.3924 8.07957 75.3176 8.67862C74.2433 9.2774 73.3967 10.1154 72.7808 11.1888C72.1636 12.2646 71.8574 13.4782 71.8574 14.8232C71.8574 16.1682 72.1636 17.3818 72.7808 18.4575C73.3963 19.5303 74.2421 20.3761 75.3149 20.9916ZM81.3401 10.4857L81.34 10.4858L81.3458 10.489C82.0652 10.8886 82.6248 11.4632 83.0269 12.2191C83.4293 12.9755 83.6335 13.8415 83.6335 14.8232C83.6335 15.8049 83.4293 16.6708 83.0269 17.4272C82.6246 18.1836 82.064 18.7676 81.343 19.1844C80.6386 19.5844 79.8344 19.7872 78.9238 19.7872C78.0141 19.7872 77.2012 19.5848 76.4793 19.1844C75.7755 18.7679 75.214 18.1835 74.7943 17.4254C74.3926 16.6694 74.1887 15.8041 74.1887 14.8232C74.1887 13.8423 74.3926 12.9769 74.7943 12.2209C75.2142 11.4626 75.7754 10.8872 76.4784 10.4878L76.4785 10.4878L76.48 10.4869C77.2021 10.0697 78.0147 9.85915 78.9238 9.85915C79.833 9.85915 80.6361 10.0697 81.3401 10.4857Z" fill="#999EB2" stroke="#999EB2" stroke-width="0.5"/>
<path d="M61.2102 20.9932L61.2117 20.994C62.3035 21.5927 63.5325 21.8896 64.8927 21.8896C66.0618 21.8896 67.1254 21.6625 68.0787 21.2035L68.0787 21.2036L68.082 21.2019C69.0392 20.7233 69.7954 20.0297 70.3458 19.1243L70.4692 18.9211L70.2726 18.7876L68.9246 17.872L68.716 17.7303L68.5761 17.9401C68.1588 18.5661 67.6332 19.0265 66.9982 19.3281C66.3555 19.6334 65.6548 19.7872 64.8927 19.7872C63.9653 19.7872 63.1346 19.5845 62.3952 19.1833C61.6737 18.7658 61.1049 18.1894 60.6863 17.4499C60.2853 16.6947 60.0813 15.8213 60.0813 14.8232C60.0813 13.8423 60.2852 12.9769 60.6869 12.2209C61.106 11.464 61.6747 10.8888 62.3944 10.489L62.3944 10.489L62.396 10.4881C63.1355 10.0701 63.9658 9.85915 64.8927 9.85915C65.6528 9.85915 66.3519 10.0206 66.9937 10.3414L66.9936 10.3415L66.9982 10.3437C67.6332 10.6453 68.1588 11.1057 68.5761 11.7317L68.716 11.9415L68.9246 11.7998L70.2726 10.8842L70.4692 10.7506L70.3458 10.5475C69.7954 9.64209 69.039 8.95664 68.0812 8.49492C67.1433 8.01764 66.0784 7.78223 64.8927 7.78223C63.5325 7.78223 62.3035 8.07905 61.2117 8.67779L61.2117 8.67778L61.2102 8.67862C60.1359 9.2774 59.2892 10.1154 58.6734 11.1888C58.0561 12.2646 57.75 13.4782 57.75 14.8232C57.75 16.1683 58.0561 17.3896 58.6725 18.4814L58.6734 18.483C59.2892 19.5564 60.1359 20.3944 61.2102 20.9932Z" fill="#999EB2" stroke="#999EB2" stroke-width="0.5"/>
<path d="M47.2836 21.4193L47.2836 21.4194L47.2884 21.4209C48.3134 21.7336 49.3808 21.8896 50.4898 21.8896C52.248 21.8896 53.6535 21.5454 54.6775 20.8268L54.6782 20.8263C55.7256 20.0859 56.2591 19.0784 56.2591 17.8244C56.2591 16.9152 56.0175 16.1694 55.5053 15.6193C55.0179 15.0958 54.4296 14.7249 53.7444 14.5085C53.0868 14.3008 52.2198 14.0952 51.147 13.8909L51.147 13.8908L51.1437 13.8903C50.2843 13.7386 49.6162 13.5964 49.1358 13.4641C48.6771 13.3213 48.2966 13.11 47.9889 12.8337C47.7255 12.583 47.586 12.2462 47.586 11.7965C47.586 11.2232 47.8291 10.763 48.3435 10.3994C48.8772 10.0341 49.691 9.83372 50.8205 9.83372C52.303 9.83372 53.5657 10.2036 54.6205 10.9338L54.8494 11.0923L54.9824 10.8477L55.7709 9.39795L55.88 9.19723L55.6899 9.07049C55.101 8.67792 54.3615 8.37183 53.4787 8.14662C52.5939 7.90394 51.7077 7.78223 50.8205 7.78223C49.1261 7.78223 47.7683 8.14499 46.7773 8.90177C45.7863 9.65855 45.2801 10.646 45.2801 11.8474C45.2801 12.788 45.5203 13.5582 46.031 14.1257L46.031 14.1257L46.0341 14.129C46.5374 14.6682 47.1411 15.0557 47.8419 15.2893L47.8419 15.2893L47.8474 15.291C48.5214 15.4984 49.4049 15.7039 50.4946 15.9082L50.4946 15.9083L50.4996 15.9091C51.3081 16.0439 51.9485 16.1858 52.425 16.3337L52.425 16.3338L52.4326 16.3359C52.8938 16.4631 53.2646 16.6588 53.5533 16.9171L53.5532 16.9171L53.5589 16.922C53.815 17.1376 53.9532 17.4436 53.9532 17.8753C53.9532 18.4839 53.7009 18.9488 53.1764 19.2937C52.661 19.6268 51.8217 19.8126 50.617 19.8126C49.7272 19.8126 48.872 19.681 48.0502 19.4183C47.2236 19.137 46.5474 18.7847 46.0155 18.3656L45.7876 18.1861L45.6437 18.438L44.8298 19.8623L44.7268 20.0426L44.8851 20.177C45.4773 20.6794 46.281 21.0909 47.2836 21.4193Z" fill="#999EB2" stroke="#999EB2" stroke-width="0.5"/>
<path d="M42.1248 8.13396V7.88396H41.8748H40.069H39.819V8.13396V9.9178C39.3166 9.31949 38.7172 8.84496 38.0215 8.49665C37.1175 8.01865 36.1025 7.78223 34.9821 7.78223C33.688 7.78223 32.5094 8.07987 31.4521 8.67871C30.3934 9.26131 29.5634 10.0921 28.9648 11.1661C28.3652 12.2418 28.0684 13.4631 28.0684 14.8232C28.0684 16.1833 28.3652 17.4045 28.9648 18.4803C29.5633 19.5541 30.3929 20.3929 31.4507 20.9923C32.5084 21.5917 33.6874 21.8896 34.9821 21.8896C36.1373 21.8896 37.179 21.6443 38.101 21.148C38.8035 20.7767 39.4019 20.2813 39.8953 19.6638V21.5124V21.7624H40.1453H41.8748H42.1248V21.5124V8.13396ZM39.2144 17.4236L39.2144 17.4236L39.2124 17.4272C38.8101 18.1836 38.2496 18.7676 37.5285 19.1844C36.8235 19.5848 36.0276 19.7872 35.1347 19.7872C34.2251 19.7872 33.4122 19.5848 32.6902 19.1844C31.9864 18.7679 31.425 18.1835 31.0052 17.4254C30.6035 16.6694 30.3996 15.8041 30.3996 14.8232C30.3996 13.8423 30.6035 12.9769 31.0052 12.2209C31.4251 11.4626 31.9864 10.8872 32.6894 10.4878L32.6894 10.4878L32.691 10.4869C33.413 10.0697 34.2256 9.85915 35.1347 9.85915C36.0261 9.85915 36.8209 10.0693 37.5256 10.4857L37.5255 10.4858L37.5313 10.489C38.2507 10.8886 38.8104 11.4632 39.2124 12.2191L39.2124 12.2191L39.2144 12.2227C39.6324 12.9784 39.8444 13.8431 39.8444 14.8232C39.8444 15.8033 39.6324 16.6679 39.2144 17.4236Z" fill="#999EB2" stroke="#999EB2" stroke-width="0.5"/>
<defs>
<clipPath id="clip0_166_727">
<rect width="24.2781" height="24.2777" fill="white" transform="translate(0.572266)"/>
</clipPath>
</defs>
</svg>
