<svg width="41" height="41" viewBox="0 0 41 41" fill="none" xmlns="http://www.w3.org/2000/svg">
<path d="M26.5483 18.9258C27.4888 18.9258 28.2025 18.0602 27.8229 17.1997C26.5825 14.3882 23.7704 12.4258 20.5 12.4258C20.2075 12.4258 19.9187 12.4415 19.6344 12.4721C18.6986 12.5728 18.305 13.6239 18.7756 14.439L20.933 18.1758C21.201 18.6399 21.6962 18.9258 22.2321 18.9258L26.5483 18.9258Z" fill="#283A90"/>
<path d="M16.179 15.9415C15.7082 15.1261 14.6005 14.9413 14.0439 15.7006C13.0732 17.0246 12.5 18.6583 12.5 20.4258C12.5 22.1934 13.0732 23.827 14.044 25.1511C14.6006 25.9103 15.7083 25.7255 16.179 24.9102L18.335 21.1759C18.603 20.7118 18.603 20.14 18.335 19.6759L16.179 15.9415Z" fill="#283A90"/>
<path d="M18.7757 26.4126C18.3051 27.2277 18.6987 28.2788 19.6345 28.3795C19.9188 28.4101 20.2076 28.4258 20.5 28.4258C23.7704 28.4258 26.5825 26.4634 27.8229 23.6518C28.2025 22.7914 27.4888 21.9258 26.5483 21.9258H22.2322C21.6963 21.9258 21.2011 22.2117 20.9332 22.6758L18.7757 26.4126Z" fill="#283A90"/>
<path fill-rule="evenodd" clip-rule="evenodd" d="M28.7591 9.12027L30.0488 6.88634C30.463 6.1689 30.2172 5.25151 29.4998 4.8373C28.7824 4.42308 27.865 4.6689 27.4508 5.38634L26.1623 7.61808C24.8663 7.04431 23.467 6.66146 22 6.5052V3.92578C22 3.09735 21.3284 2.42578 20.5 2.42578C19.6716 2.42578 19 3.09735 19 3.92578V6.5052C17.533 6.66146 16.1337 7.04432 14.8377 7.61809L13.5492 5.38638C13.135 4.66894 12.2176 4.42313 11.5002 4.83734C10.7828 5.25156 10.537 6.16894 10.9512 6.88638L12.2409 9.12028C11.0757 9.97298 10.0472 11.0015 9.19449 12.1667L6.96017 10.8767C6.24273 10.4625 5.32535 10.7083 4.91113 11.4258C4.49692 12.1432 4.74273 13.0606 5.46017 13.4748L7.69231 14.7635C7.11853 16.0595 6.73568 17.4588 6.57941 18.9258H4C3.17157 18.9258 2.5 19.5974 2.5 20.4258C2.5 21.2542 3.17157 21.9258 4 21.9258H6.57941C6.73568 23.3928 7.11853 24.7921 7.69229 26.088L5.46017 27.3767C4.74273 27.7909 4.49692 28.7083 4.91113 29.4258C5.32535 30.1432 6.24273 30.389 6.96017 29.9748L9.19447 28.6848C10.0471 29.85 11.0755 30.8784 12.2406 31.7311L10.9508 33.9652C10.5365 34.6826 10.7824 35.6 11.4998 36.0142C12.2172 36.4284 13.1346 36.1826 13.5488 35.4652L14.8374 33.2333C16.1334 33.8072 17.5329 34.1901 19 34.3464V36.9258C19 37.7542 19.6716 38.4258 20.5 38.4258C21.3284 38.4258 22 37.7542 22 36.9258V34.3464C23.4671 34.1901 24.8666 33.8072 26.1626 33.2333L27.4512 35.4652C27.8654 36.1827 28.7828 36.4285 29.5002 36.0143C30.2176 35.6001 30.4635 34.6827 30.0492 33.9652L28.7594 31.7311C29.9245 30.8784 30.9528 29.8501 31.8054 28.685L34.0395 29.9748C34.7569 30.389 35.6743 30.1432 36.0885 29.4258C36.5028 28.7083 36.2569 27.7909 35.5395 27.3767L33.3076 26.0882C33.8814 24.7922 34.2643 23.3928 34.4206 21.9258H37C37.8284 21.9258 38.5 21.2542 38.5 20.4258C38.5 19.5974 37.8284 18.9258 37 18.9258H34.4206C34.2643 17.4587 33.8814 16.0593 33.3076 14.7634L35.5395 13.4748C36.2569 13.0606 36.5028 12.1432 36.0885 11.4258C35.6743 10.7083 34.7569 10.4625 34.0395 10.8767L31.8054 12.1666C30.9527 11.0014 29.9243 9.97294 28.7591 9.12027ZM20.5 9.42578C18.5224 9.42578 16.6667 9.94765 15.0631 10.8612C15.0425 10.8744 15.0216 10.8872 15.0002 10.8995C14.9796 10.9114 14.9587 10.9228 14.9378 10.9337C13.3134 11.8876 11.9555 13.2466 11.003 14.8719C10.9935 14.89 10.9836 14.9079 10.9733 14.9258C10.9626 14.9443 10.9516 14.9625 10.9402 14.9804C10.0237 16.586 9.5 18.4447 9.5 20.4258C9.5 22.4066 10.0236 24.2652 10.9399 25.8706C10.9514 25.8887 10.9625 25.9071 10.9733 25.9258C10.9837 25.9437 10.9937 25.9619 11.0032 25.9801C11.9564 27.6063 13.3153 28.9659 14.941 29.9198C14.9607 29.9301 14.9803 29.9408 14.9998 29.952C15.02 29.9637 15.0398 29.9758 15.0593 29.9882C16.6638 30.9031 18.5208 31.4258 20.5 31.4258C22.4794 31.4258 24.3367 30.9029 25.9414 29.9878C25.9606 29.9755 25.9802 29.9636 26.0002 29.9521C26.0195 29.941 26.0389 29.9303 26.0584 29.9202C27.6827 28.9672 29.0407 27.6093 29.9938 25.9851C30.0042 25.9652 30.015 25.9454 30.0264 25.9258C30.0381 25.9054 30.0503 25.8854 30.0628 25.8658C30.9775 24.2615 31.5 22.4047 31.5 20.4258C31.5 18.4467 30.9774 16.5897 30.0626 14.9853C30.0501 14.9658 30.038 14.946 30.0264 14.9258C30.0151 14.9063 30.0044 14.8867 29.9941 14.8669C29.0416 13.2436 27.6846 11.8863 26.0616 10.9333C26.0408 10.9225 26.0202 10.9113 25.9998 10.8995C25.9786 10.8873 25.9579 10.8746 25.9376 10.8615C24.3338 9.94778 22.4779 9.42578 20.5 9.42578Z" fill="#283A90"/>
</svg>
