<svg width="21" height="21" viewBox="0 0 21 21" fill="none" xmlns="http://www.w3.org/2000/svg">
<g id="Linear / Map &#38; Location / Global">
<path id="Vector" d="M18.4118 10.6602C18.4118 11.7545 18.1962 12.8382 17.7775 13.8492C17.3586 14.8603 16.7449 15.779 15.971 16.5528C15.1972 17.3266 14.2785 17.9404 13.2675 18.3592C12.2565 18.778 11.1728 18.9935 10.0785 18.9935C8.98412 18.9935 7.90047 18.778 6.88943 18.3592C5.87838 17.9404 4.95972 17.3266 4.18589 16.5528C3.41208 15.779 2.79824 14.8603 2.37945 13.8492C1.96067 12.8382 1.74512 11.7545 1.74512 10.6602C1.74512 9.56587 1.96067 8.48222 2.37946 7.47117C2.79824 6.46013 3.41208 5.54147 4.18589 4.76765C4.95972 3.99383 5.87838 3.38 6.88943 2.96121C7.90047 2.54242 8.98412 2.32687 10.0785 2.32687C11.1728 2.32687 12.2565 2.54242 13.2675 2.96122C14.2785 3.38 15.1972 3.99383 15.971 4.76765C16.7449 5.54147 17.3586 6.46013 17.7775 7.47118C18.1962 8.48222 18.4118 9.56587 18.4118 10.6602Z" stroke="#35356A" stroke-width="1.5"/>
<path id="Vector_2" d="M13.4118 10.6602C13.4118 11.7545 13.3255 12.8382 13.158 13.8492C12.9905 14.8603 12.745 15.779 12.4355 16.5528C12.126 17.3266 11.7585 17.9404 11.354 18.3592C10.9496 18.778 10.5162 18.9935 10.0785 18.9935C9.6407 18.9935 9.20728 18.778 8.80287 18.3592C8.39842 17.9404 8.03096 17.3266 7.72143 16.5528C7.4119 15.779 7.16637 14.8603 6.99885 13.8492C6.83133 12.8382 6.74512 11.7545 6.74512 10.6602C6.74512 9.56587 6.83133 8.48222 6.99885 7.47117C7.16637 6.46013 7.4119 5.54147 7.72143 4.76765C8.03096 3.99383 8.39842 3.38 8.80287 2.96121C9.20728 2.54242 9.6407 2.32687 10.0785 2.32687C10.5162 2.32687 10.9496 2.54242 11.354 2.96122C11.7585 3.38 12.126 3.99383 12.4355 4.76765C12.745 5.54147 12.9905 6.46013 13.158 7.47118C13.3255 8.48222 13.4118 9.56587 13.4118 10.6602Z" stroke="#35356A" stroke-width="1.5"/>
<path id="Vector_3" d="M1.74512 10.6602H18.4118" stroke="#35356A" stroke-width="1.5" stroke-linecap="round"/>
</g>
</svg>
