<svg width="34" height="34" viewBox="0 0 34 34" fill="none" xmlns="http://www.w3.org/2000/svg">
<path fill-rule="evenodd" clip-rule="evenodd" d="M17 30.75C10.5182 30.75 7.27728 30.75 5.26365 28.7363C3.25 26.7228 3.25 23.4818 3.25 17C3.25 10.5182 3.25 7.27728 5.26365 5.26365C7.27728 3.25 10.5182 3.25 17 3.25C23.4818 3.25 26.7228 3.25 28.7363 5.26365C30.75 7.27728 30.75 10.5182 30.75 17C30.75 23.4818 30.75 26.7228 28.7363 28.7363C26.7228 30.75 23.4818 30.75 17 30.75ZM17 24.9062C17.5695 24.9062 18.0312 24.4445 18.0312 23.875V15.625C18.0312 15.0555 17.5695 14.5938 17 14.5938C16.4305 14.5938 15.9688 15.0555 15.9688 15.625V23.875C15.9688 24.4445 16.4305 24.9062 17 24.9062ZM17 10.125C17.7594 10.125 18.375 10.7406 18.375 11.5C18.375 12.2594 17.7594 12.875 17 12.875C16.2406 12.875 15.625 12.2594 15.625 11.5C15.625 10.7406 16.2406 10.125 17 10.125Z" fill="#35356A"/>
</svg>
