<svg width="25" height="25" viewBox="0 0 25 25" fill="none" xmlns="http://www.w3.org/2000/svg">
<g id="Group 15">
<path id="Vector" d="M8.66679 12.5737C8.66679 10.3626 10.4208 8.56978 12.5852 8.56978C14.7495 8.56978 16.5045 10.3626 16.5045 12.5737C16.5045 14.7847 14.7495 16.5775 12.5852 16.5775C10.4208 16.5775 8.66679 14.7847 8.66679 12.5737ZM6.54807 12.5737C6.54807 15.9799 9.25088 18.741 12.5852 18.741C15.9195 18.741 18.6223 15.9799 18.6223 12.5737C18.6223 9.16743 15.9195 6.40632 12.5852 6.40632C9.25088 6.40632 6.54807 9.16743 6.54807 12.5737ZM17.4504 6.16178C17.4503 6.44684 17.533 6.72553 17.6879 6.96261C17.8428 7.19969 18.0631 7.38452 18.3208 7.49371C18.5786 7.6029 18.8623 7.63156 19.136 7.57606C19.4097 7.52056 19.6611 7.38339 19.8585 7.18191C20.0559 6.98042 20.1904 6.72366 20.2449 6.44411C20.2994 6.16455 20.2716 5.87474 20.1649 5.61134C20.0583 5.34794 19.8775 5.12277 19.6456 4.9643C19.4136 4.80584 19.1409 4.7212 18.8618 4.72108H18.8613C18.4872 4.72126 18.1286 4.87309 17.864 5.14322C17.5995 5.41334 17.4508 5.77969 17.4504 6.16178ZM7.83533 22.35C6.68906 22.2967 6.06603 22.1017 5.652 21.9369C5.10308 21.7186 4.71143 21.4586 4.29965 21.0385C3.88787 20.6184 3.63298 20.2187 3.42023 19.6579C3.25882 19.2352 3.06789 18.5985 3.01578 17.4275C2.95878 16.1615 2.9474 15.7812 2.9474 12.5738C2.9474 9.36633 2.95973 8.98708 3.01578 7.72C3.06798 6.54901 3.26033 5.9136 3.42023 5.48957C3.63392 4.92882 3.88844 4.52872 4.29965 4.10806C4.71087 3.6874 5.10214 3.427 5.652 3.20966C6.06584 3.04478 6.68906 2.84972 7.83533 2.79649C9.07461 2.73826 9.44689 2.72664 12.5852 2.72664C15.7235 2.72664 16.0961 2.73922 17.3364 2.79649C18.4827 2.84982 19.1047 3.04631 19.5198 3.20966C20.0687 3.427 20.4603 3.68797 20.8721 4.10806C21.2839 4.52814 21.5378 4.92882 21.7515 5.48957C21.9129 5.91235 22.1039 6.54901 22.156 7.72C22.213 8.98708 22.2244 9.36633 22.2244 12.5738C22.2244 15.7812 22.213 16.1604 22.156 17.4275C22.1038 18.5985 21.9119 19.235 21.7515 19.6579C21.5378 20.2187 21.2833 20.6188 20.8721 21.0385C20.4609 21.4582 20.0687 21.7186 19.5198 21.9369C19.1059 22.1018 18.4827 22.2968 17.3364 22.35C16.0971 22.4083 15.7249 22.4199 12.5852 22.4199C9.44548 22.4199 9.07424 22.4083 7.83533 22.35ZM7.73798 0.635725C6.48637 0.693953 5.63111 0.896693 4.88421 1.1936C4.11069 1.5002 3.45587 1.91155 2.80152 2.57895C2.14717 3.24636 1.74555 3.91637 1.44542 4.70657C1.15478 5.47007 0.956324 6.34329 0.899326 7.6219C0.841387 8.90252 0.828125 9.31194 0.828125 12.5737C0.828125 15.8354 0.841387 16.2448 0.899326 17.5254C0.956324 18.8041 1.15478 19.6772 1.44542 20.4407C1.74555 21.2305 2.14727 21.9012 2.80152 22.5684C3.45578 23.2355 4.11069 23.6462 4.88421 23.9537C5.63253 24.2506 6.48637 24.4534 7.73798 24.5116C8.99222 24.5698 9.39234 24.5843 12.5852 24.5843C15.778 24.5843 16.1788 24.5708 17.4324 24.5116C18.6841 24.4534 19.5388 24.2506 20.2861 23.9537C21.0592 23.6462 21.7145 23.2358 22.3688 22.5684C23.0232 21.9009 23.424 21.2305 23.7249 20.4407C24.0156 19.6772 24.215 18.804 24.271 17.5254C24.328 16.2438 24.3413 15.8354 24.3413 12.5737C24.3413 9.31194 24.328 8.90252 24.271 7.6219C24.214 6.34319 24.0156 5.46959 23.7249 4.70657C23.424 3.91685 23.0221 3.24742 22.3688 2.57895C21.7155 1.91049 21.0592 1.5002 20.2871 1.1936C19.5388 0.896693 18.684 0.692992 17.4333 0.635725C16.1797 0.577497 15.779 0.562988 12.5861 0.562988C9.39328 0.562988 8.99222 0.576536 7.73798 0.635725Z" fill="currentColor"/>
</g>
</svg>
