<svg width="37" height="37" viewBox="0 0 37 37" fill="none" xmlns="http://www.w3.org/2000/svg">
<g id="Bold / Messages, Conversation / Letter">
<path id="Vector" fill-rule="evenodd" clip-rule="evenodd" d="M5.33548 8.26957C3.57812 10.0269 3.57812 12.8554 3.57812 18.5122C3.57812 24.1691 3.57812 26.9975 5.33548 28.7548C7.09284 30.5122 9.92127 30.5122 15.5781 30.5122H21.5781C27.235 30.5122 30.0634 30.5122 31.8208 28.7548C33.5781 26.9975 33.5781 24.1691 33.5781 18.5122C33.5781 12.8554 33.5781 10.0269 31.8208 8.26957C30.0634 6.51221 27.235 6.51221 21.5781 6.51221H15.5781C9.92127 6.51221 7.09284 6.51221 5.33548 8.26957ZM28.4424 11.792C28.8401 12.2693 28.7756 12.9787 28.2983 13.3765L25.0036 16.1221C23.6741 17.23 22.5965 18.1281 21.6454 18.7398C20.6546 19.377 19.6897 19.7795 18.5781 19.7795C17.4665 19.7795 16.5016 19.377 15.5109 18.7398C14.5598 18.1281 13.4822 17.2301 12.1527 16.1221L8.85792 13.3765C8.38061 12.9787 8.31612 12.2693 8.71388 11.792C9.11164 11.3147 9.82102 11.2502 10.2983 11.648L13.5367 14.3466C14.9361 15.5128 15.9077 16.3198 16.728 16.8474C17.522 17.3581 18.0605 17.5295 18.5781 17.5295C19.0957 17.5295 19.6342 17.3581 20.4282 16.8474C21.2485 16.3198 22.2201 15.5128 23.6196 14.3466L26.8579 11.648C27.3352 11.2502 28.0446 11.3147 28.4424 11.792Z" fill="#FE547C"/>
</g>
</svg>
