<svg width="21" height="20" viewBox="0 0 21 20" fill="none" xmlns="http://www.w3.org/2000/svg">
<g id="Group">
<path id="Vector" d="M5.17177 19.2386V6.27241H0.955549V19.2386H5.17222H5.17177ZM3.06454 4.5024C4.53452 4.5024 5.44968 3.50675 5.44968 2.26247C5.42216 0.989834 4.53452 0.0219727 3.0925 0.0219727C1.64949 0.0219727 0.707031 0.989835 0.707031 2.26235C0.707031 3.50664 1.62186 4.50229 3.03692 4.50229H3.06421L3.06454 4.5024ZM7.50551 19.2386H11.7214V11.9985C11.7214 11.6115 11.7489 11.2234 11.8603 10.947C12.165 10.1724 12.8587 9.37062 14.0237 9.37062C15.5489 9.37062 16.1594 10.5596 16.1594 12.3028V19.2386H20.3752V11.8042C20.3752 7.82168 18.2955 5.96842 15.5216 5.96842C13.2474 5.96842 12.2486 7.26772 11.6937 8.15267H11.7217V6.27286H7.50573C7.56076 7.48924 7.5054 19.239 7.5054 19.239L7.50551 19.2386Z" fill="currentColor"/>
</g>
</svg>
