<svg width="23" height="23" viewBox="0 0 23 23" fill="none" xmlns="http://www.w3.org/2000/svg">
<g id="Frame" filter="url(#filter0_i_232_1977)">
<g id="Vector">
<path d="M11.9997 2C6.36738 2 2 6.12739 2 11.6997C2 14.6147 3.19497 17.1346 5.13991 18.8745C5.30241 19.0195 5.40241 19.2245 5.40741 19.4445L5.46241 21.2245C5.46641 21.3554 5.50252 21.4834 5.56757 21.5972C5.63262 21.7109 5.7246 21.8069 5.83545 21.8768C5.9463 21.9467 6.07261 21.9882 6.20328 21.9978C6.33396 22.0075 6.46499 21.9848 6.58487 21.932L8.56982 21.057C8.73732 20.982 8.92731 20.9695 9.10481 21.017C10.0173 21.267 10.9873 21.402 11.9997 21.402C17.6321 21.402 21.9995 17.2746 21.9995 11.7022C21.9995 6.12989 17.6321 2 11.9997 2Z" fill="white"/>
<path d="M5.99489 14.5372L8.93231 9.87728C9.04281 9.70184 9.18849 9.55122 9.36014 9.43491C9.53179 9.31861 9.72569 9.23916 9.92959 9.20157C10.1335 9.16399 10.343 9.16908 10.5448 9.21654C10.7467 9.264 10.9365 9.35278 11.1023 9.4773L13.4397 11.2297C13.544 11.3079 13.671 11.3499 13.8013 11.3494C13.9317 11.349 14.0584 11.3061 14.1622 11.2272L17.3171 8.83231C17.7371 8.51232 18.2871 9.01731 18.0071 9.4648L15.0671 14.1222C14.9566 14.2976 14.811 14.4482 14.6393 14.5645C14.4677 14.6808 14.2738 14.7603 14.0699 14.7979C13.866 14.8355 13.6565 14.8304 13.4546 14.7829C13.2528 14.7355 13.063 14.6467 12.8972 14.5222L10.5598 12.7697C10.4554 12.6916 10.3285 12.6496 10.1981 12.65C10.0678 12.6505 9.94109 12.6934 9.83729 12.7722L6.68237 15.1671C6.26238 15.4871 5.7124 14.9846 5.99489 14.5372Z" fill="url(#paint0_radial_232_1977)"/>
</g>
</g>
<defs>
<filter id="filter0_i_232_1977" x="0.5" y="0.5" width="22.5" height="23" filterUnits="userSpaceOnUse" color-interpolation-filters="sRGB">
<feFlood flood-opacity="0" result="BackgroundImageFix"/>
<feBlend mode="normal" in="SourceGraphic" in2="BackgroundImageFix" result="shape"/>
<feColorMatrix in="SourceAlpha" type="matrix" values="0 0 0 0 0 0 0 0 0 0 0 0 0 0 0 0 0 0 127 0" result="hardAlpha"/>
<feOffset dy="0.5"/>
<feGaussianBlur stdDeviation="1.25"/>
<feComposite in2="hardAlpha" operator="arithmetic" k2="-1" k3="1"/>
<feColorMatrix type="matrix" values="0 0 0 0 0 0 0 0 0 0 0 0 0 0 0 0 0 0 0.1 0"/>
<feBlend mode="normal" in2="shape" result="effect1_innerShadow_232_1977"/>
</filter>
<radialGradient id="paint0_radial_232_1977" cx="0" cy="0" r="1" gradientUnits="userSpaceOnUse" gradientTransform="translate(5.34991 21.9995) scale(21.9994)">
<stop stop-color="#0099FF"/>
<stop offset="0.6" stop-color="#A033FF"/>
<stop offset="0.9" stop-color="#FF5280"/>
<stop offset="1" stop-color="#FF7061"/>
</radialGradient>
</defs>
</svg>
