<svg width="50" height="52" viewBox="0 0 50 52" fill="none" xmlns="http://www.w3.org/2000/svg">
<rect x="0.5" y="0.5" width="49" height="49" rx="9.5" fill="white" stroke="#F5F5F7"/>
<g opacity="0.25" filter="url(#filter0_f_232_1973)">
<rect x="7.53125" y="25" width="34.0611" height="21.2882" rx="10.6441" fill="url(#paint0_radial_232_1973)"/>
</g>
<rect x="6.5" y="6.5" width="36.8996" height="36.8996" rx="18.4498" fill="url(#paint1_radial_232_1973)"/>
<g filter="url(#filter1_i_232_1973)">
<path d="M24.9997 15C19.3674 15 15 19.1274 15 24.6997C15 27.6147 16.195 30.1346 18.1399 31.8745C18.3024 32.0195 18.4024 32.2245 18.4074 32.4445L18.4624 34.2245C18.4664 34.3554 18.5025 34.4834 18.5676 34.5972C18.6326 34.7109 18.7246 34.8069 18.8355 34.8768C18.9463 34.9467 19.0726 34.9882 19.2033 34.9978C19.334 35.0075 19.465 34.9848 19.5849 34.932L21.5698 34.057C21.7373 33.982 21.9273 33.9695 22.1048 34.017C23.0173 34.267 23.9873 34.402 24.9997 34.402C30.6321 34.402 34.9995 30.2746 34.9995 24.7022C34.9995 19.1299 30.6321 15 24.9997 15Z" fill="white"/>
<path d="M18.9949 27.5372L21.9323 22.8773C22.0428 22.7018 22.1885 22.5512 22.3601 22.4349C22.5318 22.3186 22.7257 22.2392 22.9296 22.2016C23.1335 22.164 23.343 22.1691 23.5448 22.2165C23.7467 22.264 23.9365 22.3528 24.1023 22.4773L26.4397 24.2297C26.544 24.3079 26.671 24.3499 26.8013 24.3494C26.9317 24.349 27.0584 24.3061 27.1622 24.2272L30.3171 21.8323C30.7371 21.5123 31.2871 22.0173 31.0071 22.4648L28.0671 27.1222C27.9566 27.2976 27.811 27.4482 27.6393 27.5645C27.4677 27.6808 27.2738 27.7603 27.0699 27.7979C26.866 27.8355 26.6565 27.8304 26.4546 27.7829C26.2528 27.7355 26.063 27.6467 25.8972 27.5222L23.5598 25.7697C23.4554 25.6916 23.3285 25.6496 23.1981 25.65C23.0678 25.6505 22.9411 25.6934 22.8373 25.7722L19.6824 28.1671C19.2624 28.4871 18.7124 27.9846 18.9949 27.5372Z" fill="url(#paint2_radial_232_1973)"/>
</g>
<defs>
<filter id="filter0_f_232_1973" x="2.07125" y="19.54" width="44.9815" height="32.2082" filterUnits="userSpaceOnUse" color-interpolation-filters="sRGB">
<feFlood flood-opacity="0" result="BackgroundImageFix"/>
<feBlend mode="normal" in="SourceGraphic" in2="BackgroundImageFix" result="shape"/>
<feGaussianBlur stdDeviation="2.73" result="effect1_foregroundBlur_232_1973"/>
</filter>
<filter id="filter1_i_232_1973" x="13.5" y="13.5" width="22.5" height="23" filterUnits="userSpaceOnUse" color-interpolation-filters="sRGB">
<feFlood flood-opacity="0" result="BackgroundImageFix"/>
<feBlend mode="normal" in="SourceGraphic" in2="BackgroundImageFix" result="shape"/>
<feColorMatrix in="SourceAlpha" type="matrix" values="0 0 0 0 0 0 0 0 0 0 0 0 0 0 0 0 0 0 127 0" result="hardAlpha"/>
<feOffset dy="0.5"/>
<feGaussianBlur stdDeviation="1.25"/>
<feComposite in2="hardAlpha" operator="arithmetic" k2="-1" k3="1"/>
<feColorMatrix type="matrix" values="0 0 0 0 0 0 0 0 0 0 0 0 0 0 0 0 0 0 0.1 0"/>
<feBlend mode="normal" in2="shape" result="effect1_innerShadow_232_1973"/>
</filter>
<radialGradient id="paint0_radial_232_1973" cx="0" cy="0" r="1" gradientUnits="userSpaceOnUse" gradientTransform="translate(13.2365 46.2876) scale(37.4672 23.4164)">
<stop stop-color="#0099FF"/>
<stop offset="0.6" stop-color="#A033FF"/>
<stop offset="0.9" stop-color="#FF5280"/>
<stop offset="1" stop-color="#FF7061"/>
</radialGradient>
<radialGradient id="paint1_radial_232_1973" cx="0" cy="0" r="1" gradientUnits="userSpaceOnUse" gradientTransform="translate(12.6807 43.3985) scale(40.5895 40.5884)">
<stop stop-color="#0099FF"/>
<stop offset="0.6" stop-color="#A033FF"/>
<stop offset="0.9" stop-color="#FF5280"/>
<stop offset="1" stop-color="#FF7061"/>
</radialGradient>
<radialGradient id="paint2_radial_232_1973" cx="0" cy="0" r="1" gradientUnits="userSpaceOnUse" gradientTransform="translate(18.3499 34.9995) scale(21.9994)">
<stop stop-color="#0099FF"/>
<stop offset="0.6" stop-color="#A033FF"/>
<stop offset="0.9" stop-color="#FF5280"/>
<stop offset="1" stop-color="#FF7061"/>
</radialGradient>
</defs>
</svg>
