<svg width="27" height="26" viewBox="0 0 27 26" fill="none" xmlns="http://www.w3.org/2000/svg">
<g id="Group 1410123998">
<path id="path3" d="M21.4613 2.85876L19.2877 6.58751C21.1256 8.20448 22.3361 10.4135 22.3361 13.0554C22.3361 17.9416 18.3776 21.9001 13.4914 21.9001C8.60512 21.9001 4.49643 17.9416 4.49643 13.0554C4.49643 12.3927 4.54944 11.8272 4.69082 11.2087L0.564453 13.6209C0.564453 20.2036 6.06922 26 13.4914 26C20.6396 26 26.436 20.2036 26.436 13.0554C26.436 8.91135 24.4921 5.22678 21.4613 2.85876Z" fill="#4A4A4A"/>
<path id="path4" d="M15.1875 4.42274L17.3788 0.658645C17.3788 0.658645 15.4879 -0.42817 11.874 0.190343L9.11721 5.00591C9.10838 5.01474 11.4234 3.48613 15.1875 4.42274Z" fill="#4A4A4A"/>
</g>
</svg>
