<svg  viewBox="0 0 36 36" fill="none" xmlns="http://www.w3.org/2000/svg">
<path d="M24.6451 19.19L23.9809 19.8504C23.9809 19.8504 22.4021 21.4202 18.0927 17.1353C13.7833 12.8504 15.3621 11.2806 15.3621 11.2806L15.7804 10.8647C16.8108 9.84013 16.9079 8.19524 16.0089 6.9944L14.17 4.53798C13.0573 3.0517 10.9073 2.85536 9.63193 4.12345L7.34293 6.39945C6.71057 7.02823 6.28681 7.84331 6.3382 8.7475C6.46966 11.0607 7.51628 16.0378 13.3564 21.8447C19.5496 28.0028 25.3606 28.2475 27.7369 28.026C28.4885 27.9559 29.1422 27.5731 29.669 27.0493L31.7406 24.9895C33.139 23.599 32.7447 21.2153 30.9555 20.2426L28.1693 18.728C26.9945 18.0894 25.5632 18.277 24.6451 19.19Z" fill="#283A90"/>
</svg>
