<svg width="25" height="26" viewBox="0 0 25 26" fill="none" xmlns="http://www.w3.org/2000/svg">
<g id="image-46 1" clip-path="url(#clip0_16_9476)">
<path id="Vector" d="M8.65375 20.6365C7.60488 20.6376 6.70921 20.2638 5.96973 19.5244C5.26018 18.8148 4.86555 17.8502 4.86353 16.8463C4.86456 15.7974 5.23703 14.904 5.98095 14.1601L8.66868 11.4724C8.98665 11.1544 8.98715 10.639 8.66981 10.3216C8.35246 10.0043 7.83701 10.0048 7.51904 10.3228L4.83131 13.0105C3.76942 14.0724 3.23774 15.3525 3.23329 16.8479C3.22883 18.3433 3.76101 19.6194 4.82084 20.6792C5.88066 21.7391 7.15976 22.2682 8.65515 22.2698C10.1505 22.2713 11.4307 21.7336 12.4926 20.6717L15.1803 17.984C15.4983 17.6661 15.4988 17.1506 15.1814 16.8333C14.8641 16.5159 14.3486 16.5164 14.0307 16.8344L11.3669 19.4981C10.647 20.224 9.66966 20.6325 8.65375 20.6365Z" fill="#35356A"/>
<path id="Vector_2" d="M9.52516 14.8249L14.3247 10.0254C14.6426 9.70745 15.1581 9.70695 15.4754 10.0243C15.7928 10.3416 15.7923 10.8571 15.4743 11.1751L10.6748 15.9746C10.3568 16.2925 9.84139 16.293 9.52404 15.9757C9.20669 15.6584 9.20719 15.1429 9.52516 14.8249Z" fill="#35356A"/>
<path id="Vector_3" d="M16.3448 3.73022C14.8464 3.73168 13.5722 4.26335 12.5073 5.32825L9.81959 8.01598C9.50163 8.33395 9.50112 8.84939 9.81847 9.16674C10.1358 9.48409 10.6513 9.48358 10.9692 9.16562L13.633 6.50188C14.3499 5.77896 15.3272 5.37045 16.3462 5.36346C17.395 5.36244 18.2907 5.73616 19.0302 6.47564C19.7397 7.18518 20.1344 8.14976 20.1364 9.15368C20.1353 10.2025 19.7629 11.0959 19.019 11.8399L16.3312 14.5276C16.0133 14.8456 16.0128 15.361 16.3301 15.6784C16.6474 15.9957 17.1629 15.9952 17.4809 15.6772L20.1686 12.9895C21.2305 11.9276 21.7622 10.6475 21.7666 9.15209C21.7681 7.6537 21.2389 6.38059 20.1761 5.31777C19.1192 4.26094 17.8401 3.73176 16.3448 3.73022Z" fill="#35356A"/>
</g>
<defs>
<clipPath id="clip0_16_9476">
<rect width="21.7201" height="12.8712" fill="white" transform="translate(0.27002 16.1285) rotate(-45)"/>
</clipPath>
</defs>
</svg>
