<svg width="62" height="62" viewBox="0 0 62 62" fill="none" xmlns="http://www.w3.org/2000/svg">
<path d="M47.8653 40.7542L52.228 27.6663C56.0391 16.2329 57.9447 10.5162 54.927 7.49858C51.9094 4.48094 46.1927 6.3865 34.7593 10.1976L21.6714 14.5603C12.4436 17.6362 7.82964 19.1742 6.51849 21.4295C5.27118 23.5751 5.27118 26.2249 6.51849 28.3704C7.82963 30.6258 12.4436 32.1637 21.6714 35.2397C22.815 35.6209 24.1016 35.3487 24.958 34.5003L38.9515 20.6365C39.7387 19.8565 41.0092 19.8624 41.7892 20.6497C42.5691 21.4369 42.5632 22.7074 41.776 23.4874L28.0084 37.1273C27.0645 38.0625 26.7658 39.4937 27.1859 40.7542C30.2619 49.982 31.7998 54.596 34.0552 55.9071C36.2007 57.1544 38.8506 57.1544 40.9961 55.9071C43.2514 54.596 44.7894 49.982 47.8653 40.7542Z" fill="#283A90"/>
</svg>
