<svg width="24" height="25" viewBox="0 0 24 25" fill="none" xmlns="http://www.w3.org/2000/svg">
<path d="M19 11.4258H13V5.42578C13 5.16056 12.8946 4.90621 12.7071 4.71867C12.5196 4.53114 12.2652 4.42578 12 4.42578C11.7348 4.42578 11.4804 4.53114 11.2929 4.71867C11.1054 4.90621 11 5.16056 11 5.42578V11.4258H5C4.73478 11.4258 4.48043 11.5311 4.29289 11.7187C4.10536 11.9062 4 12.1606 4 12.4258C4 12.691 4.10536 12.9454 4.29289 13.1329C4.48043 13.3204 4.73478 13.4258 5 13.4258H11V19.4258C11 19.691 11.1054 19.9454 11.2929 20.1329C11.4804 20.3204 11.7348 20.4258 12 20.4258C12.2652 20.4258 12.5196 20.3204 12.7071 20.1329C12.8946 19.9454 13 19.691 13 19.4258V13.4258H19C19.2652 13.4258 19.5196 13.3204 19.7071 13.1329C19.8946 12.9454 20 12.691 20 12.4258C20 12.1606 19.8946 11.9062 19.7071 11.7187C19.5196 11.5311 19.2652 11.4258 19 11.4258Z" fill="#283A90"/>
</svg>
