<svg width="24" height="25" viewBox="0 0 24 25" fill="none" xmlns="http://www.w3.org/2000/svg">
<path d="M14.2618 4.02515C13.1956 2.9589 12.6625 2.42578 12 2.42578C11.3375 2.42578 10.8044 2.9589 9.73815 4.02515C9.09832 4.66499 8.46427 4.96204 7.55208 4.96204C6.7556 4.96204 5.62243 4.80757 5 5.43523C4.38249 6.05792 4.53628 7.18644 4.53628 7.97784C4.53628 8.89006 4.2392 9.5241 3.59935 10.1639C2.53312 11.2302 2.00001 11.7633 2 12.4258C2.00002 13.0882 2.53314 13.6214 3.59938 14.6876C4.31616 15.4044 4.53628 15.8672 4.53628 16.8737C4.53628 17.6702 4.38181 18.8034 5.00949 19.4258C5.63218 20.0433 6.76068 19.8895 7.55206 19.8895C8.52349 19.8895 8.99128 20.0795 9.68457 20.7728C10.2749 21.3632 11.0663 22.4258 12 22.4258C12.9337 22.4258 13.7251 21.3632 14.3154 20.7728C15.0087 20.0795 15.4765 19.8895 16.4479 19.8895C17.2393 19.8895 18.3678 20.0433 18.9905 19.4258M20.4006 10.1639C21.4669 11.2302 22 11.7633 22 12.4258C22 13.0882 21.4669 13.6214 20.4006 14.6876C19.6838 15.4044 19.4637 15.8672 19.4637 16.8737C19.4637 17.6702 19.6182 18.8034 18.9905 19.4258M18.9905 19.4258H19" stroke="#283A90" stroke-width="1.5" stroke-linecap="round" stroke-linejoin="round"/>
<path d="M8 10.7335C8 10.7335 10.25 10.4258 12 14.4258C12 14.4258 17.0588 4.42578 22 2.42578" stroke="#283A90" stroke-width="1.5" stroke-linecap="round" stroke-linejoin="round"/>
</svg>
