<svg width="62" height="62" viewBox="0 0 62 62" fill="none" xmlns="http://www.w3.org/2000/svg">
<path fill-rule="evenodd" clip-rule="evenodd" d="M9.08452 13.8437C8.125 15.2108 8.125 19.2744 8.125 27.4016V31.404C8.125 45.7341 18.899 52.6882 25.6588 55.6411C27.4925 56.4421 28.4094 56.8426 31 56.8426C33.5906 56.8426 34.5075 56.4421 36.3412 55.6411C43.101 52.6882 53.875 45.7341 53.875 31.404V27.4016C53.875 19.2744 53.875 15.2108 52.9155 13.8437C51.956 12.4766 48.1351 11.1688 40.4934 8.55296L39.0375 8.0546C35.054 6.69105 33.0623 6.00928 31 6.00928C28.9377 6.00928 26.946 6.69105 22.9625 8.0546L21.5066 8.55296C13.8649 11.1688 10.044 12.4766 9.08452 13.8437ZM38.7761 27.6122C39.4773 26.8269 39.4091 25.6218 38.6238 24.9207C37.8384 24.2195 36.6334 24.2877 35.9322 25.073L28.2768 33.6471L26.0678 31.173C25.3666 30.3877 24.1616 30.3195 23.3762 31.0207C22.5909 31.7218 22.5227 32.9269 23.2239 33.7122L26.8548 37.7789C27.2165 38.1839 27.7338 38.4155 28.2768 38.4155C28.8198 38.4155 29.3371 38.1839 29.6987 37.7789L38.7761 27.6122Z" fill="#283A90"/>
</svg>
