<svg width="50" height="50" viewBox="0 0 50 50" fill="none" xmlns="http://www.w3.org/2000/svg">
<path d="M21.0001 16.4519C23.243 12.4282 24.3647 10.4163 26.0413 10.4163C27.718 10.4163 28.8397 12.4282 31.0826 16.4519L31.663 17.4929C32.3003 18.6363 32.619 19.2081 33.1159 19.5853C33.6128 19.9625 34.2318 20.1026 35.4695 20.3826L36.5963 20.6376C40.952 21.6231 43.1299 22.1158 43.648 23.7821C44.1661 25.4481 42.6813 27.1844 39.712 30.6567L38.9438 31.555C38.0999 32.5419 37.678 33.0352 37.4882 33.6456C37.2984 34.2558 37.3622 34.9142 37.4899 36.2306L37.6059 37.4292C38.0549 42.0621 38.2793 44.3786 36.9228 45.4083C35.5663 46.4381 33.5272 45.4992 29.449 43.6215L28.3938 43.1356C27.2351 42.6021 26.6555 42.3352 26.0413 42.3352C25.4272 42.3352 24.8476 42.6021 23.6888 43.1356L22.6336 43.6215C18.5554 45.4992 16.5163 46.4381 15.1598 45.4083C13.8033 44.3786 14.0278 42.0621 14.4767 37.4292L14.5929 36.2306C14.7204 34.9142 14.7842 34.2558 14.5944 33.6456C14.4046 33.0352 13.9827 32.5419 13.1389 31.555L12.3707 30.6567C9.40126 27.1844 7.91655 25.4481 8.43469 23.7821C8.95282 22.1158 11.1307 21.6231 15.4864 20.6376L16.6132 20.3826C17.851 20.1026 18.4698 19.9625 18.9668 19.5853C19.4637 19.2081 19.7824 18.6364 20.4198 17.4929L21.0001 16.4519Z" fill="#283A90"/>
<path opacity="0.5" d="M10.1401 5.20922C10.2026 4.98884 10.5938 4.98751 10.6577 5.20746C10.9498 6.21186 11.4914 7.69649 12.3104 8.50999C13.1294 9.32349 14.6177 9.85505 15.624 10.1403C15.8444 10.2028 15.8457 10.594 15.6258 10.658C14.6214 10.95 13.1368 11.4917 12.3233 12.3107C11.5098 13.1297 10.9782 14.6179 10.6929 15.6243C10.6304 15.8447 10.2392 15.846 10.1753 15.626C9.8832 14.6216 9.3416 13.137 8.52258 12.3235C7.70355 11.51 6.21533 10.9784 5.20897 10.6932C4.9886 10.6307 4.98726 10.2395 5.20722 10.1755C6.21162 9.88344 7.69624 9.34184 8.50974 8.52282C9.32324 7.7038 9.8548 6.21557 10.1401 5.20922Z" fill="#283A90"/>
<path opacity="0.5" fill-rule="evenodd" clip-rule="evenodd" d="M39.5833 6.771C40.4463 6.771 41.1458 7.47056 41.1458 8.3335V8.85433H41.6667C42.5296 8.85433 43.2292 9.55389 43.2292 10.4168C43.2292 11.2798 42.5296 11.9793 41.6667 11.9793H41.1458V12.5002C41.1458 13.3631 40.4463 14.0627 39.5833 14.0627C38.7204 14.0627 38.0208 13.3631 38.0208 12.5002V11.9793H37.5C36.6371 11.9793 35.9375 11.2798 35.9375 10.4168C35.9375 9.55389 36.6371 8.85433 37.5 8.85433H38.0208V8.3335C38.0208 7.47056 38.7204 6.771 39.5833 6.771Z" fill="#283A90"/>
</svg>
