<svg width="181" height="44" viewBox="0 0 181 44" fill="none" xmlns="http://www.w3.org/2000/svg">
<rect x="1.16699" y="0.5" width="179" height="43" rx="21.5" fill="white"/>
<rect x="1.16699" y="0.5" width="179" height="43" rx="21.5" stroke="#F5F5F7"/>
<path d="M26.9426 12.9429C27.7153 11.6249 29.6206 11.6249 30.3933 12.9429L32.1192 15.8866C32.4011 16.3676 32.8711 16.709 33.4156 16.8286L36.7486 17.5603C38.2409 17.8879 38.8296 19.7 37.8149 20.8421L35.5486 23.3931C35.1783 23.8099 34.9988 24.3624 35.0534 24.9173L35.3874 28.3132C35.537 29.8337 33.9956 30.9536 32.5958 30.3415L29.4692 28.9744C28.9584 28.751 28.3775 28.751 27.8667 28.9744L24.7402 30.3415C23.3404 30.9536 21.7989 29.8337 21.9485 28.3132L22.2826 24.9173C22.3371 24.3624 22.1576 23.8099 21.7873 23.3931L19.521 20.8421C18.5063 19.7 19.0951 17.8879 20.5873 17.5603L23.9203 16.8286C24.4649 16.709 24.9348 16.3676 25.2168 15.8866L26.9426 12.9429Z" fill="#FFCE22"/>
<path d="M57.9426 12.9429C58.7153 11.6249 60.6206 11.6249 61.3933 12.9429L63.1192 15.8866C63.4011 16.3676 63.8711 16.709 64.4156 16.8286L67.7486 17.5603C69.2409 17.8879 69.8296 19.7 68.8149 20.8421L66.5486 23.3931C66.1783 23.8099 65.9988 24.3624 66.0534 24.9173L66.3874 28.3132C66.537 29.8337 64.9956 30.9536 63.5958 30.3415L60.4692 28.9744C59.9584 28.751 59.3775 28.751 58.8667 28.9744L55.7402 30.3415C54.3404 30.9536 52.7989 29.8337 52.9485 28.3132L53.2826 24.9173C53.3371 24.3624 53.1576 23.8099 52.7873 23.3931L50.521 20.8421C49.5063 19.7 50.0951 17.8879 51.5873 17.5603L54.9203 16.8286C55.4649 16.709 55.9348 16.3676 56.2168 15.8866L57.9426 12.9429Z" fill="#FFCE22"/>
<path d="M88.9426 12.9429C89.7153 11.6249 91.6206 11.6249 92.3933 12.9429L94.1192 15.8866C94.4011 16.3676 94.8711 16.709 95.4156 16.8286L98.7486 17.5603C100.241 17.8879 100.83 19.7 99.8149 20.8421L97.5486 23.3931C97.1783 23.8099 96.9988 24.3624 97.0534 24.9173L97.3874 28.3132C97.537 29.8337 95.9956 30.9536 94.5958 30.3415L91.4692 28.9744C90.9584 28.751 90.3775 28.751 89.8667 28.9744L86.7402 30.3415C85.3404 30.9536 83.7989 29.8337 83.9485 28.3132L84.2826 24.9173C84.3371 24.3624 84.1576 23.8099 83.7873 23.3931L81.521 20.8421C80.5063 19.7 81.0951 17.8879 82.5873 17.5603L85.9203 16.8286C86.4649 16.709 86.9348 16.3676 87.2168 15.8866L88.9426 12.9429Z" fill="#FFCE22"/>
<path d="M119.943 12.9429C120.715 11.6249 122.621 11.6249 123.393 12.9429L125.119 15.8866C125.401 16.3676 125.871 16.709 126.416 16.8286L129.749 17.5603C131.241 17.8879 131.83 19.7 130.815 20.8421L128.549 23.3931C128.178 23.8099 127.999 24.3624 128.053 24.9173L128.387 28.3132C128.537 29.8337 126.996 30.9536 125.596 30.3415L122.469 28.9744C121.958 28.751 121.378 28.751 120.867 28.9744L117.74 30.3415C116.34 30.9536 114.799 29.8337 114.949 28.3132L115.283 24.9173C115.337 24.3624 115.158 23.8099 114.787 23.3931L112.521 20.8421C111.506 19.7 112.095 17.8879 113.587 17.5603L116.92 16.8286C117.465 16.709 117.935 16.3676 118.217 15.8866L119.943 12.9429Z" fill="#FFCE22"/>
<path d="M150.943 12.9429C151.715 11.6249 153.621 11.6249 154.393 12.9429L156.119 15.8866C156.401 16.3676 156.871 16.709 157.416 16.8286L160.749 17.5603C162.241 17.8879 162.83 19.7 161.815 20.8421L159.549 23.3931C159.178 23.8099 158.999 24.3624 159.053 24.9173L159.387 28.3132C159.537 29.8337 157.996 30.9536 156.596 30.3415L153.469 28.9744C152.958 28.751 152.378 28.751 151.867 28.9744L148.74 30.3415C147.34 30.9536 145.799 29.8337 145.949 28.3132L146.283 24.9173C146.337 24.3624 146.158 23.8099 145.787 23.3931L143.521 20.8421C142.506 19.7 143.095 17.8879 144.587 17.5603L147.92 16.8286C148.465 16.709 148.935 16.3676 149.217 15.8866L150.943 12.9429Z" fill="#FFCE22"/>
</svg>
