<svg width="26" height="21" viewBox="0 0 26 21" fill="none" xmlns="http://www.w3.org/2000/svg">
<g id="Capa 2">
<g id="ELEMENTS">
<path id="Vector" d="M25.7392 2.91299C24.9301 3.25438 24.0795 3.4921 23.2085 3.62028C23.6157 3.55184 24.2149 2.83313 24.4535 2.54223C24.8158 2.10342 25.092 1.6025 25.2679 1.06489C25.2679 1.02496 25.3087 0.967921 25.2679 0.939401C25.2474 0.928417 25.2244 0.922662 25.201 0.922662C25.1777 0.922662 25.1547 0.928417 25.1341 0.939401C24.1883 1.44159 23.1817 1.82488 22.138 2.0802C22.1017 2.0911 22.063 2.09207 22.0261 2.08303C21.9892 2.07399 21.9555 2.05526 21.9286 2.02887C21.8474 1.93403 21.7599 1.84447 21.6668 1.76078C21.2411 1.38685 20.7582 1.08081 20.2357 0.853841C19.5303 0.57011 18.7684 0.447233 18.0075 0.494488C17.2692 0.540205 16.5484 0.734363 15.8899 1.06489C15.2414 1.41336 14.6715 1.88677 14.2144 2.45667C13.7335 3.04324 13.3864 3.72397 13.1963 4.45307C13.0395 5.14659 13.0217 5.86338 13.1439 6.56355C13.1439 6.68334 13.1439 6.70045 13.0392 6.68334C8.89121 6.08442 5.48787 4.6413 2.70702 1.54403C2.58485 1.40713 2.52086 1.40713 2.42196 1.54403C1.21188 3.34649 1.79947 6.1985 3.31206 7.60739C3.51568 7.79562 3.72511 7.97815 3.94619 8.14927C3.25267 8.10099 2.57609 7.91673 1.95654 7.60739C1.84019 7.53323 1.77619 7.57316 1.77038 7.71006C1.75389 7.89985 1.75389 8.09067 1.77038 8.28046C1.89177 9.19002 2.25736 10.0516 2.82978 10.7772C3.40219 11.5028 4.16088 12.0663 5.02827 12.4102C5.23972 12.499 5.46005 12.5659 5.68567 12.6098C5.04364 12.7337 4.38517 12.753 3.73675 12.6668C3.59713 12.6383 3.54477 12.7125 3.59713 12.8437C4.45232 15.1253 6.30816 15.8212 7.6695 16.209C7.85566 16.2376 8.04183 16.2376 8.25126 16.2832C8.25126 16.2832 8.25126 16.2832 8.21636 16.3174C7.81494 17.0361 6.19181 17.521 5.44714 17.7719C4.08795 18.2506 2.63879 18.4336 1.20025 18.3081C0.973357 18.2739 0.920998 18.2796 0.862821 18.3081C0.804644 18.3366 0.862821 18.3994 0.926815 18.4564C1.2177 18.6446 1.50858 18.8101 1.8111 18.9698C2.7117 19.4514 3.66382 19.834 4.65012 20.1106C9.75804 21.4909 15.5059 20.4756 19.3397 16.7395C22.3533 13.8076 23.4121 9.7635 23.4121 5.71366C23.4121 5.55965 23.6041 5.46838 23.7146 5.38853C24.477 4.80609 25.1492 4.11824 25.7101 3.34649C25.8072 3.23145 25.857 3.08498 25.8497 2.9358C25.8497 2.85024 25.8497 2.86736 25.7392 2.91299Z" fill="currentColor"/>
</g>
</g>
</svg>
