<svg width="62" height="62" viewBox="0 0 62 62" fill="none" xmlns="http://www.w3.org/2000/svg">
<path d="M39.8952 19.9881C39.8952 24.9012 35.9124 28.884 30.9993 28.884C26.0863 28.884 22.1035 24.9012 22.1035 19.9881C22.1035 15.0751 26.0863 11.0923 30.9993 11.0923C35.9124 11.0923 39.8952 15.0751 39.8952 19.9881Z" fill="#283A90"/>
<path d="M46.25 42.8631C46.25 47.7761 39.4223 51.7589 31 51.7589C22.5777 51.7589 15.75 47.7761 15.75 42.8631C15.75 37.9501 22.5777 33.9673 31 33.9673C39.4223 33.9673 46.25 37.9501 46.25 42.8631Z" fill="#283A90"/>
<path d="M18.6025 13.6343C19.0536 13.6343 19.4939 13.6785 19.9191 13.7628C18.8832 15.6027 18.2923 17.7266 18.2923 19.9884C18.2923 22.1953 18.8548 24.2707 19.8442 26.0792C19.4423 26.1541 19.0272 26.1933 18.6025 26.1933C15.0076 26.1933 12.0933 23.3819 12.0933 19.9138C12.0933 16.4457 15.0076 13.6343 18.6025 13.6343Z" fill="#283A90"/>
<path d="M14.346 49.1819C12.9025 47.4564 11.9382 45.3391 11.9382 42.8634C11.9382 40.4635 12.8444 38.4002 14.2149 36.7043C9.37386 37.0798 5.58398 39.7276 5.58398 42.9381C5.58398 46.1788 9.44046 48.8461 14.346 49.1819Z" fill="#283A90"/>
<path d="M43.7088 19.9884C43.7088 22.1953 43.1463 24.2707 42.1569 26.0792C42.5589 26.1541 42.974 26.1933 43.3986 26.1933C46.9936 26.1933 49.9079 23.3819 49.9079 19.9138C49.9079 16.4457 46.9936 13.6343 43.3986 13.6343C42.9476 13.6343 42.5072 13.6785 42.082 13.7628C43.1179 15.6027 43.7088 17.7266 43.7088 19.9884Z" fill="#283A90"/>
<path d="M47.6552 49.1819C52.5607 48.8461 56.4172 46.1788 56.4172 42.9381C56.4172 39.7276 52.6273 37.0798 47.7862 36.7043C49.1567 38.4002 50.063 40.4635 50.063 42.8634C50.063 45.3391 49.0986 47.4564 47.6552 49.1819Z" fill="#283A90"/>
</svg>
