<svg width="24" height="24" viewBox="0 0 24 24" fill="none" xmlns="http://www.w3.org/2000/svg">
<path fill-rule="evenodd" clip-rule="evenodd" d="M12 22.5C17.799 22.5 22.5 17.799 22.5 12C22.5 6.20101 17.799 1.5 12 1.5C6.20101 1.5 1.5 6.20101 1.5 12C1.5 13.8832 1.99575 15.6506 2.86386 17.1788L1.5 22.5L6.98615 21.2278C8.47604 22.0391 10.1842 22.5 12 22.5ZM12 20.8847C16.9068 20.8847 20.8847 16.9068 20.8847 12C20.8847 7.09317 16.9068 3.11538 12 3.11538C7.09317 3.11538 3.11538 7.09317 3.11538 12C3.11538 13.8945 3.70837 15.6505 4.71888 17.0926L3.92307 20.0769L6.95995 19.3177C8.39202 20.306 10.1284 20.8847 12 20.8847Z" fill="white"/>
<path d="M9.37502 7.12405C9.12538 6.62263 8.7424 6.66702 8.35552 6.66702C7.66408 6.66702 6.58594 7.49523 6.58594 9.03661C6.58595 10.2999 7.14259 11.6827 9.01832 13.7512C10.8285 15.7476 13.207 16.7803 15.1817 16.7451C17.1563 16.71 17.5625 15.0108 17.5625 14.4369C17.5625 14.1825 17.4047 14.0556 17.2959 14.0212C16.623 13.6982 15.3821 13.0965 15.0996 12.9834C14.8172 12.8704 14.6698 13.0233 14.5781 13.1065C14.3221 13.3505 13.8145 14.0697 13.6406 14.2315C13.4668 14.3933 13.2077 14.3114 13.0999 14.2502C12.7031 14.091 11.6272 13.6125 10.7696 12.7811C9.709 11.753 9.64676 11.3993 9.44693 11.0844C9.28708 10.8325 9.40438 10.6779 9.46292 10.6104C9.69143 10.3467 10.007 9.93964 10.1485 9.73734C10.29 9.53505 10.1776 9.22791 10.1102 9.03661C9.82034 8.21391 9.57475 7.52521 9.37502 7.12405Z" fill="white"/>
</svg>
