<svg width="25" height="24" viewBox="0 0 25 24" fill="none" xmlns="http://www.w3.org/2000/svg">
<path fill-rule="evenodd" clip-rule="evenodd" d="M12.5 22.5C18.299 22.5 23 17.799 23 12C23 6.20101 18.299 1.5 12.5 1.5C6.70101 1.5 2 6.20101 2 12C2 13.8832 2.49575 15.6506 3.36386 17.1788L2 22.5L7.48615 21.2278C8.97604 22.0391 10.6842 22.5 12.5 22.5ZM12.5 20.8847C17.4068 20.8847 21.3847 16.9068 21.3847 12C21.3847 7.09317 17.4068 3.11538 12.5 3.11538C7.59317 3.11538 3.61538 7.09317 3.61538 12C3.61538 13.8945 4.20837 15.6505 5.21888 17.0926L4.42307 20.0769L7.45995 19.3177C8.89202 20.306 10.6284 20.8847 12.5 20.8847Z" fill="#35356A"/>
<path d="M9.87502 7.12405C9.62538 6.62263 9.2424 6.66702 8.85552 6.66702C8.16408 6.66702 7.08594 7.49523 7.08594 9.03661C7.08595 10.2999 7.64259 11.6827 9.51832 13.7512C11.3285 15.7476 13.707 16.7803 15.6817 16.7451C17.6563 16.71 18.0625 15.0108 18.0625 14.4369C18.0625 14.1825 17.9047 14.0556 17.7959 14.0212C17.123 13.6982 15.8821 13.0965 15.5996 12.9834C15.3172 12.8704 15.1698 13.0233 15.0781 13.1065C14.8221 13.3505 14.3145 14.0697 14.1406 14.2315C13.9668 14.3933 13.7077 14.3114 13.5999 14.2502C13.2031 14.091 12.1272 13.6125 11.2696 12.7811C10.209 11.753 10.1468 11.3993 9.94693 11.0844C9.78708 10.8325 9.90438 10.6779 9.96292 10.6104C10.1914 10.3467 10.507 9.93964 10.6485 9.73734C10.79 9.53505 10.6776 9.22791 10.6102 9.03661C10.3203 8.21391 10.0747 7.52521 9.87502 7.12405Z" fill="#35356A"/>
</svg>
