<svg width="25" height="25" viewBox="0 0 25 25" fill="none" xmlns="http://www.w3.org/2000/svg">
<g id="download 1">
<path id="Vector" fill-rule="evenodd" clip-rule="evenodd" d="M12.0781 23.1602C17.8771 23.1602 22.5781 18.4592 22.5781 12.6602C22.5781 6.86123 17.8771 2.16022 12.0781 2.16022C6.27914 2.16022 1.57812 6.86123 1.57812 12.6602C1.57812 14.5434 2.07388 16.3108 2.94199 17.839L1.57812 23.1602L7.06427 21.8881C8.55416 22.6993 10.2623 23.1602 12.0781 23.1602ZM12.0781 21.5449C16.9849 21.5449 20.9628 17.567 20.9628 12.6602C20.9628 7.75339 16.9849 3.7756 12.0781 3.7756C7.1713 3.7756 3.19351 7.75339 3.19351 12.6602C3.19351 14.5548 3.7865 16.3108 4.79701 17.7529L4.00119 20.7371L7.03808 19.978C8.47014 20.9662 10.2066 21.5449 12.0781 21.5449Z" fill="white"/>
<path id="Vector_2" d="M9.45315 7.78427C9.2035 7.28285 8.82052 7.32724 8.43364 7.32724C7.7422 7.32724 6.66406 8.15545 6.66406 9.69683C6.66408 10.9601 7.22071 12.3429 9.09645 14.4115C10.9067 16.4078 13.2852 17.4405 15.2598 17.4053C17.2344 17.3702 17.6406 15.671 17.6406 15.0971C17.6406 14.8428 17.4828 14.7159 17.374 14.6814C16.7011 14.3584 15.4602 13.7567 15.1777 13.6437C14.8954 13.5306 14.7479 13.6835 14.6563 13.7667C14.4002 14.0108 13.8926 14.7299 13.7188 14.8917C13.545 15.0535 13.2858 14.9716 13.178 14.9105C12.7812 14.7512 11.7053 14.2727 10.8477 13.4413C9.78712 12.4132 9.72489 12.0595 9.52506 11.7446C9.3652 11.4927 9.4825 11.3381 9.54105 11.2706C9.76956 11.0069 10.0851 10.5999 10.2266 10.3976C10.3681 10.1953 10.2558 9.88813 10.1884 9.69683C9.89847 8.87413 9.65287 8.18543 9.45315 7.78427Z" fill="white"/>
</g>
</svg>
