<svg width="16" height="16" viewBox="0 0 16 16" fill="none" xmlns="http://www.w3.org/2000/svg">
<path d="M6.01525 3.11753C6.95347 1.43444 7.42259 0.592896 8.12394 0.592896C8.82529 0.592896 9.29441 1.43444 10.2326 3.11753L10.4754 3.55296C10.742 4.03124 10.8753 4.27038 11.0831 4.42817C11.291 4.58596 11.5499 4.64453 12.0676 4.76167L12.5389 4.86832C14.3609 5.28055 15.2718 5.48666 15.4886 6.18361C15.7053 6.88056 15.0842 7.60677 13.8422 9.0592L13.5208 9.43497C13.1679 9.8477 12.9914 10.0541 12.912 10.3094C12.8326 10.5647 12.8593 10.84 12.9127 11.3907L12.9613 11.892C13.149 13.8299 13.2429 14.7988 12.6755 15.2296C12.1081 15.6603 11.2552 15.2676 9.54932 14.4822L9.10799 14.279C8.62324 14.0558 8.38086 13.9442 8.12394 13.9442C7.86702 13.9442 7.62464 14.0558 7.13989 14.279L6.69856 14.4822C4.9927 15.2676 4.13977 15.6603 3.57236 15.2296C3.00495 14.7988 3.09884 13.8299 3.28663 11.892L3.33521 11.3907C3.38857 10.84 3.41525 10.5647 3.33586 10.3094C3.25647 10.0541 3.07999 9.8477 2.72704 9.43497L2.4057 9.05921C1.16363 7.60677 0.542599 6.88056 0.759329 6.18361C0.97606 5.48666 1.88702 5.28055 3.70894 4.86832L4.18029 4.76167C4.69803 4.64453 4.95689 4.58596 5.16474 4.42817C5.3726 4.27038 5.5059 4.03124 5.77252 3.55296L6.01525 3.11753Z" fill="#FFBB54"/>
</svg>
